<?xml version="1.0" encoding="UTF-8" standalone="no"?>
<svg
   xmlns:dc="http://purl.org/dc/elements/1.1/"
   xmlns:cc="http://creativecommons.org/ns#"
   xmlns:rdf="http://www.w3.org/1999/02/22-rdf-syntax-ns#"
   xmlns:svg="http://www.w3.org/2000/svg"
   xmlns="http://www.w3.org/2000/svg"
   xmlns:sodipodi="http://sodipodi.sourceforge.net/DTD/sodipodi-0.dtd"
   xmlns:inkscape="http://www.inkscape.org/namespaces/inkscape"
   id="svg2"
   version="1.1"
   inkscape:version="0.48.4 r9939"
   width="470.1625"
   height="170.35"
   xml:space="preserve"
   sodipodi:docname="ars-logo.svg"
   preserveAspectRatio="xMidYMin meet"
   viewbox="0 0 470.1625 170.35"><metadata
     id="metadata8"><rdf:RDF><cc:Work
         rdf:about=""><dc:format>image/svg+xml</dc:format><dc:type
           rdf:resource="http://purl.org/dc/dcmitype/StillImage" /><dc:title /></cc:Work></rdf:RDF></metadata><defs
     id="defs6"><clipPath
       clipPathUnits="userSpaceOnUse"
       id="clipPath18"><path
         d="m 0,0 3761,0 0,1362.81 -3761,0 L 0,0 z"
         id="path20" /></clipPath></defs><sodipodi:namedview
     pagecolor="#ffffff"
     bordercolor="#666666"
     borderopacity="1"
     objecttolerance="10"
     gridtolerance="10"
     guidetolerance="10"
     inkscape:pageopacity="0"
     inkscape:pageshadow="2"
     inkscape:window-width="1680"
     inkscape:window-height="988"
     id="namedview4"
     showgrid="false"
     inkscape:zoom="0.74016961"
     inkscape:cx="235.08125"
     inkscape:cy="85.175003"
     inkscape:window-x="-8"
     inkscape:window-y="-8"
     inkscape:window-maximized="1"
     inkscape:current-layer="g10" /><g
     id="g10"
     inkscape:groupmode="layer"
     inkscape:label="ink_ext_XXXXXX"
     transform="matrix(1.25,0,0,-1.25,0,170.35)"><g
       id="g12"
       transform="matrix(0.09,0,0,0.09,17.293334,4.3233334)"><g
         id="g14"><g
           id="g16"
           clip-path="url(#clipPath18)"><path
             d="M 452.695,612.809 312.852,239.18 c -5.235,-16.25 -7.813,-32.848 -7.813,-49.731 0,-33.828 11.563,-62.617 34.688,-86.367 C 362.852,79.3281 390.43,67.5 422.383,67.5 L 420.43,35.3086 0,35.3086 0,67.5391 c 35.1953,0 64.0234,7.9726 86.5234,23.9414 C 108.984,107.422 127.07,140.82 140.781,191.641 l 376.407,970.469 c 13.046,35.82 19.57,65.78 19.57,89.92 0,44.29 -17.266,66.44 -51.797,66.44 l 0,29.34 452.656,0 0,-29.34 c -19.57,0 -33.906,-8.16 -43.008,-24.45 -9.14,-16.29 -13.671,-36.17 -13.671,-59.61 0,-21.48 3.554,-41.05 10.742,-58.63 L 1249.53,175.039 c 5.86,-10.43 13.99,-24.769 24.42,-43.008 10.43,-18.242 22.65,-33.5622 36.68,-45.9412 13.98,-12.3789 30.46,-18.5507 49.37,-18.5507 l 0,-32.2305 -468.32,0 0,32.1914 c 70.39,26.0117 105.586,72.5 105.586,139.488 0,54.614 -25.274,113.321 -75.782,176.094 -50.507,62.734 -117.812,115.742 -201.875,158.984 -84.101,43.243 -173.086,66.836 -266.914,70.743 z m 32.266,110 c 47.578,0 93.516,-4.571 137.852,-13.633 44.296,-9.102 87.656,-25.352 130,-48.711 42.343,-23.399 83.085,-54.57 122.226,-93.551 L 657.031,1191.56 484.961,722.809"
             style="fill:#ba151b;fill-opacity:1;fill-rule:nonzero;stroke:none"
             id="path22"
             inkscape:connector-curvature="0" /><path
             d="m 1748.48,661.289 0,-454.109 c 0,-39.059 13.82,-72.098 41.48,-99.141 27.66,-27.0273 60.39,-40.4999 98.17,-40.4999 l 0,-32.2305 -499.73,0 0,32.2305 c 40.35,0 74.22,14.4922 101.56,43.5119 27.34,28.988 41.02,66.64 41.02,112.929 l 0,890.66 c 0,82.11 -14.34,136.68 -42.97,163.75 -28.67,27.04 -61.88,40.59 -99.61,40.59 l 0,28.83 813.87,0 c 83.24,0 146.32,-18.28 189.29,-54.77 42.93,-36.48 64.42,-83.4 64.42,-140.7 0,-64.53 -25.71,-128.36 -77.07,-191.563 -51.41,-63.203 -120.98,-110.781 -208.79,-142.695 77.3,-80.156 139.49,-161.602 186.6,-244.336 47.11,-82.734 89.49,-168.75 127.19,-258.008 37.65,-89.258 68.2,-152.109 91.6,-188.59 23.36,-36.4878 54.57,-56.3667 93.55,-59.6089 l 0,-32.2305 -436.44,0 0,32.2305 c 25.35,0 44.68,7.8125 58.04,23.4297 13.32,15.6332 20,37.7422 20,66.4102 0,56.641 -25.39,125.312 -76.09,206.055 L 1982.73,739.41 1748.48,661.289 z m 0,91.793 c 85.23,27.461 164.92,59.18 239.14,95.195 74.18,36.016 134.53,76.094 181.05,120.274 46.53,44.139 69.81,91.089 69.81,140.859 0,15.7 -1.33,28.44 -3.91,38.28 -7.81,32.03 -36.64,56.76 -86.41,74.1 -49.76,17.35 -106.21,26.02 -169.33,26.02 -41.64,0 -79.57,-3.28 -113.71,-9.85 -34.18,-6.56 -62.15,-16.36 -83.95,-29.45 -21.79,-13.08 -32.69,-28.12 -32.69,-45.12 l 0,-410.308"
             style="fill:#ba151b;fill-opacity:1;fill-rule:nonzero;stroke:none"
             id="path24"
             inkscape:connector-curvature="0" /><path
             d="m 3529.57,1362.81 77.27,-389.533 -31.29,-16.601 c -27.42,94.924 -82.54,166.284 -165.43,214.104 -82.89,47.81 -171.64,71.72 -266.25,71.72 -35.24,0 -67.39,-3.29 -96.41,-9.77 -29.06,-6.48 -55.16,-16.09 -78.32,-28.75 -23.16,-12.69 -40.27,-27.19 -51.37,-43.44 -17.65,-24.72 -26.44,-47.5 -26.44,-68.28 0,-35.12 23.16,-64.88 69.49,-89.26 46.33,-24.41 104.41,-46.207 174.26,-65.387 69.8,-19.179 148.75,-40.625 236.87,-64.375 88.13,-23.75 150.43,-47.968 187,-72.656 63.86,-40.312 113.55,-88.281 149.1,-143.828 35.5,-55.586 53.28,-114.57 53.28,-176.992 0,-98.164 -41.45,-194.063 -124.3,-287.653 -39.8,-43.597 -83.36,-79.687 -130.62,-108.277 C 3459.1,55.2305 3409.69,34.1406 3358.13,20.4688 3306.56,6.82813 3254.06,0 3200.59,0 c -84.85,0 -173.87,16.5586 -267.15,49.6484 -40.24,9.6797 -73.32,14.5704 -99.26,14.5704 -42.85,0 -72.07,-14.7696 -87.62,-44.2188 l -110.04,515.23 32.23,15.625 c 7.19,-45.546 24.3,-92.851 51.33,-141.953 27.03,-49.101 63.32,-95.113 108.94,-138.004 45.59,-42.929 98.17,-77.578 157.78,-103.91 59.61,-26.328 123.59,-39.488 192.03,-39.488 74.88,0 149.45,15.93 223.75,47.809 41.68,16.871 75.23,46.132 100.62,87.773 25.39,41.598 38.13,87.109 38.13,136.563 0,48.75 -13.87,92.5 -41.6,131.21 -27.74,38.672 -70,66.172 -126.76,82.422 -28.67,10.391 -96.56,31.719 -203.67,63.907 -107.11,32.187 -193.71,62.929 -259.81,92.226 -66.09,29.297 -119.8,65.235 -161.13,107.852 -41.37,42.617 -62.03,93.867 -62.03,153.708 0,25.39 4.22,52.7 12.69,81.99 12.35,39.69 32.7,74.97 61.02,105.86 28.32,30.9 63.16,56.61 104.49,77.11 41.33,20.47 86.29,35.43 134.81,44.89 48.51,9.45 98.79,14.18 150.89,14.18 65.08,0 128.56,-8.17 190.43,-24.46 48.29,-7.85 81.57,-11.75 99.85,-11.75 43.71,0 73.4,14.64 89.06,44.02"
             style="fill:#ba151b;fill-opacity:1;fill-rule:nonzero;stroke:none"
             id="path26"
             inkscape:connector-curvature="0" /></g></g></g></g></svg>