<?xml version="1.0" standalone="no"?>
<!DOCTYPE svg PUBLIC "-//W3C//DTD SVG 1.1//EN" "http://www.w3.org/Graphics/SVG/1.1/DTD/svg11.dtd" >
<svg>
<metadata>
Created by FontForge 20110222 at Mon Nov 25 04:58:42 2013
 By Orthosie Webhosting
</metadata>
<defs>
<font id="BenguiatBook" horiz-adv-x="1247" >
  <font-face 
    font-family="BenguiatBook"
    font-weight="400"
    font-stretch="normal"
    units-per-em="2048"
    panose-1="2 11 5 0 0 0 0 0 0 0"
    ascent="1638"
    descent="-410"
    x-height="1008"
    cap-height="1343"
    bbox="-272 -455 2480 1825"
    underline-thickness="0"
    underline-position="0"
    unicode-range="U+0020-F002"
  />
<missing-glyph horiz-adv-x="1536" 
d="M256 0v1280h1024v-1280h-1024zM1247 33v1214h-958v-1214h958z" />
    <glyph glyph-name=".notdef" horiz-adv-x="1536" 
d="M256 0v1280h1024v-1280h-1024zM1247 33v1214h-958v-1214h958z" />
    <glyph glyph-name=".null" horiz-adv-x="0" 
 />
    <glyph glyph-name="nonmarkingreturn" horiz-adv-x="0" 
 />
    <glyph glyph-name="space" unicode=" " horiz-adv-x="641" 
 />
    <glyph glyph-name="exclam" unicode="!" horiz-adv-x="688" 
d="M176 336q29 46 49.5 186.5t20.5 292.5q0 117 -11 216.5t-34.5 183t-57.5 128.5h402q-35 -43 -60.5 -129.5t-38 -195.5t-12.5 -227q0 -139 15.5 -254.5t46.5 -200.5q-68 59 -154 59q-87 0 -166 -59zM193 143q11 61 51.5 96t91.5 35q53 0 91 -38.5t38 -106.5
q0 -74 -42 -115t-97 -41t-94 43.5t-39 126.5z" />
    <glyph glyph-name="quotedbl" unicode="&#x22;" horiz-adv-x="559" 
d="M113 1313h110v-402h-110v402zM322 1313h110v-402h-110v402z" />
    <glyph glyph-name="numbersign" unicode="#" horiz-adv-x="1296" 
d="M385 496l80 335h-240l31 111l242 2l94 383h113l-97 -383h223l97 383h110l-96 -383h225l-30 -113h-226l-80 -335h240l-31 -113h-239l-96 -383h-113l96 383h-223l-96 -383h-113l96 383h-223l33 113h223zM575 831l-79 -335h225l80 335h-226z" />
    <glyph glyph-name="dollar" unicode="$" horiz-adv-x="1296" 
d="M545 625q-199 14 -299.5 90.5t-100.5 183.5q0 79 53.5 155t149.5 125.5t213 53.5v80q0 61 -14 85.5t-51 24.5v33h256v-33q-31 -10 -41.5 -16.5t-16.5 -27t-6 -66.5v-80q35 -4 58.5 -8.5t60 -13t62.5 -13t36 -4.5q33 0 72 20l47 -383h-31q-6 84 -69 148.5t-154.5 98.5
t-181.5 34q-69 0 -120.5 -21.5t-68.5 -66.5q-10 -22 -10 -49q0 -73 139 -105t272.5 -56.5t235 -94.5t101.5 -223q0 -84 -31 -163.5t-92 -145.5t-143.5 -103t-182.5 -37v-127q0 -35 12 -49t35 -14v-33h-256v33q37 0 51.5 13.5t14.5 49.5v127q-9 0 -15 -0.5t-14 -1.5
q-28 0 -91 15.5t-87 15.5q-52 0 -82 -43l-127 495h47q39 -101 102.5 -176.5t134.5 -120.5t132 -55v449zM688 592v-416q111 6 182.5 75.5t71.5 154.5q0 49 -27.5 90t-85 67t-141.5 29z" />
    <glyph glyph-name="percent" unicode="%" horiz-adv-x="1825" 
d="M1057 1343h256v-30q-83 -29 -129 -160l-449 -1040q-16 -40 -16 -56q0 -24 33 -24v-33h-240v33q43 0 63.5 28t49.5 99l465 1057q5 11 8.5 20t7.5 20t4 19q0 26 -53 37v30zM1073 432q3 120 52 206.5t125.5 130.5t164.5 44q87 0 162.5 -45.5t121.5 -137.5t46 -222v-39
q-11 -193 -107.5 -300.5t-224.5 -107.5q-89 0 -166.5 54t-125.5 161t-48 256zM1233 416q0 -112 24.5 -192t64.5 -121.5t83 -41.5q66 0 117.5 86.5t62.5 251.5q1 14 1.5 25t0.5 29q0 133 -48.5 205.5t-117.5 72.5q-73 0 -128.5 -82.5t-59.5 -232.5zM80 991q14 118 66.5 204
t127.5 128.5t154 42.5q85 0 159.5 -46.5t119.5 -137.5t45 -221q-3 -108 -31 -188.5t-75 -135.5t-105.5 -81t-120.5 -26q-87 0 -166 49t-127.5 142t-48.5 217q0 37 2 53zM240 977q0 -10 -0.5 -16.5t-1.5 -14.5q0 -156 52.5 -246t121.5 -90q73 0 126.5 95t53.5 272
q0 144 -49 224.5t-117 80.5q-67 0 -121 -79.5t-65 -225.5z" />
    <glyph glyph-name="ampersand" unicode="&#x26;" horiz-adv-x="1776" 
d="M449 848q-150 109 -150 250q0 78 48 146t130 108.5t178 40.5q77 0 141 -19.5t108.5 -55t68.5 -81t24 -98.5q0 -47 -22 -99q222 -131 368 -131q75 0 114.5 34t39.5 77q0 31 -18 51.5t-49 20.5q-45 0 -103 -52l-14 17q38 60 91 91.5t107 31.5q64 0 110 -40.5t56 -115.5
q4 -20 4 -31q0 -65 -39.5 -123.5t-105 -93.5t-141.5 -35q-96 0 -178 60q5 -24 13.5 -51.5t14.5 -49.5t10.5 -53t4.5 -63q0 -51 -11 -105q79 -72 133.5 -144.5t103 -151t77.5 -111.5t67 -39l2 -33h-479v33q94 25 94 92q0 36 -30 68l-64 79q-59 -129 -202 -204.5t-314 -75.5
q-234 0 -397 137q-150 123 -150 295q0 92 45 177.5t126.5 150.5t187.5 96zM528 801q-67 -36 -109.5 -84.5t-63.5 -107.5t-21 -122q0 -92 42 -176.5t118.5 -137t171.5 -52.5q25 0 69 8q105 13 192 67.5t144 155.5zM735 881l418 -322q0 86 -22.5 178t-66.5 166.5t-103 104.5
q-23 -47 -99.5 -87t-126.5 -40zM688 928q71 32 106 85.5t35 112.5q0 71 -46 120.5t-128 49.5q-68 -6 -109.5 -43.5t-41.5 -95.5q0 -54 46 -114t138 -115z" />
    <glyph glyph-name="quotesingle" unicode="'" horiz-adv-x="608" 
d="M96 928v49q71 98 132 202t61 148l-17 16h240l-240 -415h-176z" />
    <glyph glyph-name="parenleft" unicode="(" horiz-adv-x="688" 
d="M512 1409l96 -66q-135 -96 -203.5 -297t-68.5 -444q0 -172 32.5 -336t95 -293.5t144.5 -195.5l-96 -66q-105 87 -188 220t-130 294.5t-47 329.5q0 146 38 294.5t119.5 291t207.5 268.5z" />
    <glyph glyph-name="parenright" unicode=")" horiz-adv-x="688" 
d="M160 1393q126 -105 207.5 -237.5t119 -277t37.5 -298.5q0 -175 -46.5 -346.5t-129.5 -310.5t-188 -226l-80 63q86 67 146.5 189.5t91 279.5t30.5 318q0 170 -32.5 328.5t-97 277.5t-155.5 174z" />
    <glyph glyph-name="asterisk" unicode="*" horiz-adv-x="1057" 
d="M446 1040q-27 7 -64.5 15t-74.5 8q-34 0 -84 -6l66 176q40 -26 61 -42.5t31 -24t36.5 -19t61.5 -27.5q0 68 -15.5 130t-47.5 93h207q-24 -36 -44 -101t-20 -122q60 13 120.5 53t72.5 74l63 -176q-129 0 -209 -31q87 -129 162 -129l-162 -127q4 8 4 17q0 35 -32 89.5
t-66 86.5q-38 -57 -59 -99t-21 -94l-145 113q38 7 72.5 36t60.5 64t26 43z" />
    <glyph glyph-name="plus" unicode="+" horiz-adv-x="1217" 
d="M561 545v416h127v-416h416v-127l-416 -2v-416h-127v416h-418v129h418z" />
    <glyph glyph-name="comma" unicode="," horiz-adv-x="641" 
d="M96 -176v49q77 107 135 206.5t58 143.5l-17 17h240l-240 -416h-176z" />
    <glyph glyph-name="hyphen" unicode="-" horiz-adv-x="528" 
d="M96 592q17 -6 31 -10.5t22.5 -5.5t26.5 -1h240q32 0 54 9t42 41h31l-94 -240q-33 21 -53 26t-60 5h-160q-39 0 -64.5 -6.5t-39.5 -16t-24 -22t-15 -19.5h-33z" />
    <glyph glyph-name="period" unicode="." horiz-adv-x="641" 
d="M162 129q0 64 42.5 103.5t98.5 39.5q55 0 92 -36t37 -107q0 -78 -39 -121t-94 -43q-54 0 -95.5 44t-41.5 120z" />
    <glyph glyph-name="slash" unicode="/" horiz-adv-x="848" 
d="M592 1343h256v-30q-51 0 -96 -113l-543 -1343q-19 -46 -19 -66q0 -19 11.5 -28.5t38.5 -18.5v-33h-256v33q73 24 96 113l545 1343q18 38 18 68q0 45 -51 45v30z" />
    <glyph glyph-name="zero" unicode="0" horiz-adv-x="1296" 
d="M80 705q0 128 44.5 248.5t123.5 213t181 145t212 52.5q124 0 240 -68q141 -84 219 -260t78 -379q0 -139 -40 -271t-122 -233.5t-201 -152.5q-105 -45 -207 -45q-151 0 -273 96.5t-189.5 255t-67.5 334.5q1 16 1.5 29t0.5 35zM303 688q0 -151 18.5 -284.5t85 -232.5
t199.5 -99q30 0 82 10q157 31 206.5 229t49.5 441q0 103 -33.5 220t-101 198t-166.5 81q-58 0 -131 -37q-106 -50 -157.5 -211t-51.5 -315z" />
    <glyph glyph-name="one" unicode="1" horiz-adv-x="1296" 
d="M319 1280l449 129v-1200q0 -73 48 -125.5t142 -52.5q9 1 16 1.5t17 0.5v-33h-672v33q115 0 162 43.5t47 132.5v895q0 85 -27 116t-110 31q-18 0 -72 -4v33z" />
    <glyph glyph-name="two" unicode="2" horiz-adv-x="1296" 
d="M465 209h416q77 0 136 27t96.5 69t53.5 94l33 -14l-129 -401l-31 16h-993q357 284 627 592q83 94 132.5 200t49.5 203q0 110 -72 172q-79 72 -190 72q-84 0 -163 -39t-128 -108t-49 -150q1 -7 1.5 -13t0.5 -18l-33 -14l-80 367q65 35 198 70.5t267 35.5q72 0 135.5 -11.5
t124 -39t108.5 -73.5t79 -109q28 -61 28 -121q0 -105 -68.5 -223t-164.5 -221t-197 -194.5t-188 -168.5z" />
    <glyph glyph-name="three" unicode="3" horiz-adv-x="1296" 
d="M352 801l463 350h-366q-92 0 -138.5 -32t-87.5 -111l-30 16l110 352l49 -33h705l49 -79l-371 -287q147 -30 251.5 -98t155 -161.5t50.5 -201.5q0 -102 -39 -197q-65 -163 -229.5 -256.5t-368.5 -93.5q-88 0 -175.5 19t-170.5 57t-162 98l209 322l33 -16q-25 -51 -25 -107
q0 -67 38.5 -123.5t108.5 -89.5t164 -33q62 0 135.5 24.5t136 69.5t100.5 107.5t38 140.5q0 64 -24 121q-29 77 -87.5 133.5t-150 87.5t-217.5 31q-84 0 -154 -10z" />
    <glyph glyph-name="four" unicode="4" horiz-adv-x="1296" 
d="M63 369q0 68 39 130t150.5 217.5t163.5 260.5q69 134 69 223q0 72 -53 80l273 209q18 -74 18 -123q0 -156 -145 -375l-322 -463h465v559q67 13 122.5 85.5t67.5 140.5h33q-20 -82 -20 -178q0 -30 2 -77t2 -67v-463h159q38 0 69.5 22.5t43.5 57.5l33 -16l-66 -256
q-23 26 -43.5 36.5t-66.5 10.5h-129v-176q0 -69 32 -121.5t97 -52.5v-33h-465v33q63 11 96 52.5t33 123.5v174h-418q-160 0 -240 -14z" />
    <glyph glyph-name="five" unicode="5" horiz-adv-x="1296" 
d="M352 1137q0 -176 -49 -226q112 31 246 31q123 0 236 -27.5t204 -83.5t145 -142.5t54 -203.5q0 -21 -4 -69q-18 -119 -75.5 -207t-145 -146t-192 -86t-218.5 -28q-143 0 -276 43t-230 121l193 319l32 -16q-26 -53 -26 -109q0 -68 42.5 -121.5t114 -82.5t154.5 -29
q118 0 211 55q61 29 104.5 75t67 104t23.5 118q0 101 -66 199q-51 67 -155 99t-232 32q-76 0 -144 -10t-130 -28.5t-107 -45.5q31 50 56.5 132t41 181t15.5 193q0 99 -19 182q49 -31 96 -31h562q64 0 84.5 4.5t42.5 26.5l-80 -303l-31 14q4 16 4 23q0 18 -17 30.5t-53 12.5
h-479z" />
    <glyph glyph-name="six" unicode="6" horiz-adv-x="1296" 
d="M303 752q175 135 389 135q130 0 244.5 -54t182 -156.5t67.5 -240.5v-37q-12 -130 -91.5 -231.5t-200.5 -156t-251 -54.5q-102 0 -200.5 36.5t-178.5 115t-128 200t-54 283.5q-2 18 -2 57q0 178 51 312t143.5 223t213.5 131.5t257 42.5q162 0 345 -62l-129 -319l-33 14
q8 31 8 64q0 90 -58.5 140t-148.5 50q-91 0 -184 -55t-160.5 -166.5t-81.5 -271.5zM319 465q0 -126 47 -214t122.5 -131.5t160.5 -43.5q117 0 206.5 80t105.5 229q4 23 4 66q0 158 -90 242.5t-218 84.5q-83 0 -159 -36.5t-125.5 -108.5t-53.5 -168z" />
    <glyph glyph-name="seven" unicode="7" horiz-adv-x="1296" 
d="M977 1137h-625q-49 0 -85 -12.5t-59 -33t-42.5 -48t-36.5 -52.5l-33 17l113 368q13 -21 31 -32t37.5 -13t58.5 -2h625q67 0 96 5t63 26q1 -11 1.5 -20.5t0.5 -22.5q0 -145 -54.5 -266.5t-172 -316t-186 -359t-84.5 -375.5h-273q27 209 99.5 361t171.5 276t202 254
t152 246z" />
    <glyph glyph-name="eight" unicode="8" horiz-adv-x="1296" 
d="M399 752q-83 13 -143 55.5t-91.5 103t-31.5 125.5q0 87 54.5 165t165 126.5t272.5 48.5q161 0 272.5 -49.5t165 -127.5t53.5 -167q0 -66 -30.5 -125.5t-87.5 -100.5t-134 -54q103 -25 174.5 -80.5t108.5 -130t37 -156.5q0 -109 -61 -204t-183.5 -154.5t-298.5 -59.5h-25
q-177 0 -304.5 58t-192 153.5t-64.5 200.5q0 81 39 156.5t114.5 131.5t190.5 85zM352 1057q0 -121 79.5 -184.5t191.5 -63.5q102 0 182 53.5t92 145.5v24q0 70 -40 123t-105 80t-136 27q-48 0 -93 -12t-81.5 -38t-60 -66t-29.5 -89zM944 369q0 76 -27 134.5t-76.5 101
t-109 63t-123.5 20.5q-78 0 -146.5 -33t-111.5 -101.5t-47 -168.5q0 -102 44.5 -173.5t116.5 -106.5t154 -35q85 0 159 35t120.5 103.5t46.5 160.5z" />
    <glyph glyph-name="nine" unicode="9" horiz-adv-x="1296" 
d="M961 625q-174 -154 -396 -154q-127 0 -239.5 55.5t-179 155.5t-66.5 227q0 23 2 35q6 134 80 234t191.5 153t246.5 53q152 0 285.5 -73t216 -227t82.5 -379q-4 -265 -108 -430t-261 -234.5t-334 -69.5q-103 0 -195 21.5t-157 54.5l127 322l31 -17q-4 -36 -4 -53
q0 -105 63 -161t158 -56q75 0 156 34t151 100.5t111 161t41 212.5q0 22 -2 35zM303 961q0 -126 44.5 -211t117.5 -125.5t156 -40.5q84 0 160.5 40.5t126 119t53.5 184.5q0 106 -47 183.5t-123.5 118t-159.5 40.5q-120 0 -212.5 -79.5t-115.5 -229.5z" />
    <glyph glyph-name="colon" unicode=":" horiz-adv-x="641" 
d="M162 737q0 43 20 75.5t52.5 50.5t68.5 18q55 0 92 -36t37 -108q0 -79 -39.5 -121.5t-93.5 -42.5t-95.5 44t-41.5 120zM162 129q0 64 42.5 103.5t98.5 39.5q55 0 92 -36t37 -107q0 -78 -39 -121t-94 -43q-54 0 -95.5 44t-41.5 120z" />
    <glyph glyph-name="semicolon" unicode=";" horiz-adv-x="641" 
d="M274 737q0 43 20.5 76t53 50.5t68.5 17.5q55 0 92 -36t37 -108q0 -79 -39.5 -121.5t-93.5 -42.5t-96 44.5t-42 119.5zM96 -176v49q77 107 135 206.5t58 143.5l-17 17h240l-240 -416h-176z" />
    <glyph glyph-name="less" unicode="&#x3c;" horiz-adv-x="1217" 
d="M272 465l815 -385v-127l-958 446v129l975 433v-130z" />
    <glyph glyph-name="equal" unicode="=" horiz-adv-x="1217" 
d="M129 672h958v-129h-958v129zM1087 385v-129h-958v129h958z" />
    <glyph glyph-name="greater" unicode="&#x3e;" horiz-adv-x="1217" 
d="M928 449l-799 382v146l958 -465v-127l-958 -418v129z" />
    <glyph glyph-name="question" unicode="?" horiz-adv-x="1057" 
d="M336 336q-49 77 -49 141q0 75 46.5 123.5t164.5 141.5t175.5 170t61.5 192q0 79 -66 123.5t-167 44.5q-137 0 -243.5 -81t-106.5 -226q0 -47 8 -84h-31l-82 415q39 -20 66 -20q24 0 81.5 23.5t117.5 39.5t153 21q20 2 59 2q365 0 437 -258q8 -33 8 -68q0 -73 -39 -131.5
t-100 -103.5t-149 -90.5t-106 -55.5q-96 -55 -96 -118q0 -41 39.5 -73t73.5 -32v-33q-33 7 -62 7q-56 0 -107.5 -17.5t-86.5 -52.5zM575 129q0 -72 -38 -112t-93 -40q-54 0 -96.5 41.5t-42.5 110.5q0 67 42 105t99 38q54 0 91.5 -36t37.5 -107z" />
    <glyph glyph-name="at" unicode="@" horiz-adv-x="1583" 
d="M815 336q-106 -100 -217 -100q-96 0 -158.5 74.5t-62.5 205.5q0 77 24 172q37 126 101 213.5t142.5 132.5t154.5 45q36 0 71.5 -11.5t65.5 -34t55 -56.5l33 80h160l-207 -658q-6 -21 -6 -37q0 -43 43 -43q50 0 126.5 60t132.5 163t56 226q0 126 -64.5 237.5t-178 180.5
t-255.5 78h-26q-157 0 -294.5 -80.5t-220.5 -217.5t-83 -298q1 -7 1.5 -13t0.5 -14q7 -136 60 -244.5t138 -184t192.5 -115.5t217.5 -40q153 0 289 74.5t223 220.5h96q-53 -127 -147.5 -213.5t-214.5 -130t-248 -43.5q-133 0 -259 47t-226 138.5t-158.5 227.5t-58.5 310
q4 161 64 287t159.5 211.5t221 129.5t251.5 44q182 0 334.5 -85.5t232.5 -250.5q56 -112 56 -238q0 -103 -35.5 -201.5t-99 -180t-139 -126.5t-148.5 -45q-113 0 -195 103zM545 352q26 -41 73 -41q57 0 120 49.5t63 71.5l143 416q6 24 6 47q0 49 -31 82t-79 33
q-28 0 -61 -15t-64 -46.5t-60 -84.5q-64 -118 -98.5 -236.5t-34.5 -199.5q0 -64 23 -76z" />
    <glyph glyph-name="A" unicode="A" horiz-adv-x="1327" 
d="M465 705q73 0 141 -14t133 -50t125 -96l-223 639zM432 592l-143 -383q-8 -25 -8 -51q0 -52 35.5 -88.5t84.5 -36.5l-2 -33h-430v33q54 0 88.5 24.5t55.5 102.5l385 993q20 55 20 92q0 68 -53 68v30h463v-30q-30 0 -44 -25t-14 -61q0 -33 11 -60l366 -1024q9 -16 25 -44
t37.5 -47t50.5 -19v-33h-479v33q108 40 108 143q0 84 -77.5 180.5t-206.5 163t-273 72.5z" />
    <glyph glyph-name="B" unicode="B" horiz-adv-x="1327" 
d="M432 705v-496q0 -57 57.5 -87t147.5 -30q87 0 177 27.5t147 73.5q96 77 96 210q0 110 -75 220t-230 192zM432 801q154 40 264 95t160.5 109.5t50.5 104.5q0 56 -59.5 89.5t-165.5 33.5q-8 0 -13.5 -0.5t-13.5 -1.5q-111 0 -167 -12.5t-56 -65.5v-352zM848 848
q162 -53 263 -125t147.5 -156t46.5 -168q0 -104 -60 -196.5t-162 -147.5t-219 -55h-801v33q146 0 146 160v960q0 86 -35.5 115.5t-110.5 44.5v30h785q84 0 159 -23t121 -66.5t46 -98.5q0 -67 -77.5 -144.5t-248.5 -162.5z" />
    <glyph glyph-name="C" unicode="C" horiz-adv-x="1409" 
d="M1247 -16q-15 6 -53 6q-26 0 -40.5 -0.5t-41.5 -1.5t-65 -2t-72 -2q-186 0 -352.5 42.5t-303.5 166.5q-80 71 -136 161.5t-85.5 194t-29.5 205.5q0 148 61 270q72 149 183 231t296 105q58 6 113 6q77 0 178.5 -12.5t136.5 -12.5q72 0 117 35l94 -385l-30 -14
q-24 82 -90 145t-156 97t-189 34q-123 0 -227.5 -54.5t-170 -170.5t-65.5 -287v-20q4 -135 57.5 -251.5t142.5 -198t197.5 -125.5t217.5 -44q141 0 258.5 74.5t183.5 222.5l33 -14z" />
    <glyph glyph-name="D" unicode="D" horiz-adv-x="1456" 
d="M80 47q61 0 95 37t34 109v974q0 62 -42 104t-104 42v30h545q187 0 334.5 -62t247.5 -168t149.5 -237.5t49.5 -269.5q0 -121 -38.5 -229.5t-114 -192.5t-192 -134t-260.5 -50h-704v47zM449 209q0 -51 52 -79t136 -28q81 0 168 29t163 93.5t122.5 167t46.5 241.5v39
q-4 123 -58 229.5t-133.5 180t-172.5 115.5t-169 42q-72 0 -113.5 -37t-41.5 -115v-878z" />
    <glyph glyph-name="E" unicode="E" 
d="M432 977q27 0 83 -2t83 -2q99 0 152 18.5t53 71.5q0 16 -2 24l30 17l80 -463l-30 -16q-20 134 -102 187.5t-255 53.5q-59 0 -92 -2v-655q0 -32 25.5 -54.5t72 -34t103.5 -11.5q80 0 171 23.5t176.5 70.5t156.5 121t110 172l33 -17l-176 -512q-29 16 -65 24.5t-111 8.5
h-865v33q71 0 108.5 42.5t37.5 117.5v960q0 86 -35.5 115.5t-110.5 44.5v33h898q79 0 96 14l96 -399l-33 -17q-20 92 -103 162t-194.5 107.5t-212.5 37.5q-78 0 -128 -25t-50 -73v-176z" />
    <glyph glyph-name="F" unicode="F" horiz-adv-x="1137" 
d="M449 961q30 0 78 -1t87 -2q65 0 108.5 9t68 37.5t24.5 82.5l33 17l80 -479l-31 -17q-23 123 -77.5 177.5t-133.5 66.5t-237 12v-704q0 -65 43.5 -96t99.5 -31v-33h-496v33q50 0 89.5 34.5t39.5 92.5v977q0 80 -48 128t-114 48v30h881q48 0 77 5.5t50 27.5l96 -415
l-30 -17q-34 102 -119 168.5t-189 97.5t-202 31q-77 0 -127.5 -20t-50.5 -54v-206z" />
    <glyph glyph-name="G" unicode="G" horiz-adv-x="1536" 
d="M1153 1393l80 -369l-33 -16q-30 78 -94 137t-152 91t-178 32q-178 0 -307.5 -113.5t-149.5 -339.5q-2 -18 -2 -57q0 -159 56.5 -283.5t147 -207.5t193.5 -125t197 -42q93 0 151 40t58 116v496q0 59 -39 102t-90 43v31h465v-31q-43 0 -69.5 -45.5t-26.5 -99.5v-576
q0 -143 96 -143v-33h-625q-194 0 -360 87.5t-270 232t-119 305.5q-6 42 -6 92q0 161 63 307.5t221 243t422 96.5q64 0 99 -2q38 0 92.5 -7t66.5 -7q68 0 113 45z" />
    <glyph glyph-name="H" unicode="H" horiz-adv-x="1456" 
d="M897 1313v30h496v-30q-79 -13 -112.5 -35t-33.5 -78v-991q0 -64 15 -99.5t41.5 -51.5t72.5 -25v-33h-495v33q143 0 143 143v688h-608v-655q0 -88 44 -132t99 -44v-33h-512v33q39 0 73.5 19.5t53.5 52t19 71.5v991q0 88 -34.5 117t-95.5 29v30h496v-30q-63 0 -103 -25
t-40 -71v-240h608v223q0 65 -34 89t-93 24z" />
    <glyph glyph-name="I" unicode="I" horiz-adv-x="641" 
d="M80 1343h495v-32q-126 0 -126 -144v-974q0 -70 41 -115t102 -45v-33h-512v33q129 0 129 160v960q0 73 -35 115.5t-94 42.5v32z" />
    <glyph glyph-name="J" unicode="J" horiz-adv-x="1057" 
d="M193 528q-31 -71 -31 -147q0 -84 38.5 -149t99.5 -101.5t128 -36.5q103 0 173.5 85.5t70.5 252.5v752q0 44 -24.5 73t-58.5 42.5t-61 13.5v30h496v-30q-52 0 -90.5 -25.5t-38.5 -70.5v-818q0 -135 -62.5 -231t-167 -143.5t-229.5 -47.5q-136 0 -264.5 55t-218.5 161
l207 352z" />
    <glyph glyph-name="K" unicode="K" horiz-adv-x="1327" 
d="M575 848l-176 -143v-529q0 -76 44 -109.5t102 -33.5v-33h-512v33q50 0 88.5 37.5t38.5 105.5v991q0 90 -29.5 118t-97.5 28v30h512v-30q-54 0 -100 -36.5t-46 -92.5v-353l353 289q28 20 49 44t31 47t10 44q0 26 -15 42t-43 16v30h496v-30q-61 -12 -129.5 -38t-110.5 -58
l-305 -240q150 -117 250 -269t164 -297.5t120.5 -263.5t100.5 -118q14 0 23 4v-33h-465v33q42 0 61 13t19 46q0 24 -17 84q-45 164 -159 347t-257 325z" />
    <glyph glyph-name="L" unicode="L" horiz-adv-x="1137" 
d="M1167 479l-176 -512q-31 23 -67 28t-109 5h-768v33q72 0 109 54.5t37 152.5v913q0 73 -38 108t-92 52v30h496v-30q-79 -11 -111 -47t-32 -99v-911q0 -74 56.5 -117t143.5 -43q89 0 189.5 44t189 134t142.5 222z" />
    <glyph glyph-name="M" unicode="M" horiz-adv-x="1616" 
d="M815 784l256 433q23 33 23 51q0 30 -54 45v30h512v-30q-63 -16 -96 -46.5t-33 -113.5v-960q0 -70 32 -115t81 -45v-33h-496v33q77 11 110.5 45t33.5 115v974l-432 -688l-400 688v-991q0 -50 27 -92t100 -51v-33h-416v33q64 14 97 38t33 89v977q0 57 -14 90t-35.5 49
t-42.5 23.5t-38 13.5v30h529v-30q-33 -9 -33 -35q0 -19 22.5 -66.5t26.5 -58.5z" />
    <glyph glyph-name="N" unicode="N" horiz-adv-x="1409" 
d="M1087 848v352q0 63 -30.5 80t-112.5 33v30h416v-30q-61 -15 -95 -37.5t-34 -75.5v-991q0 -176 129 -176v-33h-399v33q58 0 92 34t34 93v305q0 75 -20.5 105t-91.5 85l-639 529v-991q0 -85 38 -115t105 -45v-33h-416v33q46 8 72.5 24t42 49.5t15.5 86.5v974
q0 79 -30 105.5t-100 40.5v30h545v-30q-35 -9 -35 -27q0 -23 68 -69z" />
    <glyph glyph-name="O" unicode="O" horiz-adv-x="1616" 
d="M350 528q49 -151 128 -250.5t172.5 -146.5t193.5 -47q113 0 213.5 60t161.5 170t61 253q0 200 -127 424q-45 80 -109 135t-140 83t-154 28q-82 0 -158.5 -32t-135 -93t-93.5 -157t-35 -218q0 -90 22 -209zM801 1360q178 -7 316.5 -68t228 -158t134 -215.5t44.5 -250.5
q0 -135 -46 -259.5t-138 -225t-224 -158.5t-299 -58h-33q-172 7 -306 68.5t-223.5 161t-136 222t-46.5 253.5q0 175 82 329.5t246.5 252t400.5 106.5z" />
    <glyph glyph-name="P" unicode="P" horiz-adv-x="1137" 
d="M432 721q114 32 221.5 81t183.5 117.5t76 147.5q0 51 -32 100q-21 28 -92 47t-146 19q-90 0 -150.5 -28t-60.5 -85v-399zM432 608v-432q0 -60 42.5 -101.5t100.5 -41.5v-33h-512v33q64 0 105 28.5t41 114.5v991q0 77 -43 111.5t-103 34.5v30h801q125 0 207 -63.5
t82 -161.5q0 -86 -73.5 -179.5t-235 -180.5t-412.5 -150z" />
    <glyph glyph-name="Q" unicode="Q" horiz-adv-x="1665" 
d="M449 319q149 60 274 60q231 0 381 -203q83 79 124.5 187.5t41.5 230.5q0 115 -35.5 225.5t-101 200.5t-158.5 147t-207 64q-138 0 -237 -61.5t-149 -169.5t-50 -246q0 -105 30 -217t87 -218zM479 289q16 -44 73 -91.5t141 -79.5t175 -32q54 0 93 10q-56 63 -112.5 109
t-119 73t-133.5 27q-62 0 -117 -16zM1200 80q43 -57 120.5 -96t143.5 -39q53 0 85 28t32 88q0 37 -12 82l30 17q17 -61 17 -129q0 -84 -30.5 -142.5t-82.5 -86t-114 -27.5q-67 0 -137.5 29t-131 84t-96.5 126q-145 -37 -266 -37q-163 0 -293.5 58.5t-221 161.5t-136.5 229.5
t-46 257.5t45 251t135.5 216t228 152t314.5 57q173 0 311.5 -60t233 -161t145 -230.5t50.5 -261.5q0 -172 -81.5 -322t-242.5 -245z" />
    <glyph glyph-name="R" unicode="R" horiz-adv-x="1296" 
d="M432 735q131 42 245 97t185.5 122.5t71.5 143.5q0 24 -4 39q-12 49 -88.5 75.5t-173.5 26.5q-64 0 -116.5 -10t-86 -30t-33.5 -46v-418zM432 641v-465q0 -60 42.5 -101.5t100.5 -41.5v-33h-512v33q62 0 104 44.5t42 115.5v911q0 126 -44 167.5t-102 41.5v30h834
q128 0 194 -56t66 -144q0 -99 -79 -196t-214 -146q119 -123 191.5 -250t130.5 -264t94 -193t96 -61v-33h-448v33q39 0 59.5 24t20.5 68q0 87 -78 211l-258 385z" />
    <glyph glyph-name="S" unicode="S" 
d="M961 1360l79 -399l-32 -17q-42 146 -169 219.5t-272 73.5q-54 0 -98.5 -10t-80 -29.5t-52.5 -44.5q-27 -38 -27 -70q0 -54 71 -91.5t178 -67t242 -66t191 -74.5q98 -62 152.5 -147.5t54.5 -181.5q0 -151 -127 -295q-61 -67 -133.5 -111t-151.5 -65t-161 -21
q-130 0 -273 51q-62 15 -102 15q-66 0 -90 -45l-113 528l33 16q11 -70 52.5 -145.5t111.5 -141.5t161.5 -106.5t196.5 -40.5q115 0 229 49q64 26 103 90t39 140q0 75 -42.5 134.5t-129.5 84.5q-44 16 -208.5 65.5t-266 94.5t-165 110.5t-63.5 157.5q0 39 13 84
q19 61 62.5 108.5t107 79t138 46t154.5 14.5q100 0 195 -25q74 -12 102 -12q67 0 91 45z" />
    <glyph glyph-name="T" unicode="T" horiz-adv-x="1167" 
d="M465 1231q-138 -9 -217.5 -29.5t-140 -76.5t-107.5 -164l-33 16l96 399q60 -24 94.5 -28.5t114.5 -4.5h689q59 0 89.5 5t53.5 28l96 -415l-33 -17q-24 95 -83.5 159.5t-154.5 96t-224 31.5v-1071q0 -64 32.5 -88.5t93.5 -38.5v-33h-495v33q64 11 96.5 42.5t32.5 100.5
v1055z" />
    <glyph glyph-name="U" unicode="U" horiz-adv-x="1376" 
d="M47 1343h512v-30q-59 -12 -101 -45t-42 -68v-751q0 -118 41 -197t119 -117.5t192 -38.5q153 0 252.5 87.5t99.5 295.5v658q0 95 -33 128t-96 48v30h402v-30q-46 -12 -70 -26.5t-41.5 -57.5t-17.5 -125v-639q0 -224 -137 -361t-371 -137h-35q-110 0 -231 32.5t-209 115.5
t-88 221v848q0 58 -35.5 87.5t-110.5 41.5v30z" />
    <glyph glyph-name="V" unicode="V" horiz-adv-x="1327" 
d="M688 223l336 914q10 40 10 69q0 48 -24 77.5t-68 29.5l2 30h367v-30q-55 -11 -85 -49.5t-59 -110.5l-385 -1024q-6 -24 -6 -41q0 -55 72 -55v-33h-416v33q34 0 49 11.5t15 39.5q0 35 -17 76l-350 1024q-8 32 -27 62t-45.5 48.5t-56.5 18.5v30h465v-30q-86 0 -86 -101
q0 -27 6 -59z" />
    <glyph glyph-name="W" unicode="W" horiz-adv-x="1825" 
d="M592 193l225 1007q1 6 1.5 11.5t0.5 13.5q0 88 -114 88v30h479v-30q-64 0 -89.5 -13t-25.5 -73q0 -27 2 -43l225 -991l207 974q2 13 2 33q0 113 -129 113v30h416v-30q-63 0 -105 -37.5t-55 -108.5l-223 -1007q-6 -25 -6 -45q0 -68 53 -82v-33h-416v33q25 0 35 10.5
t10 38.5q0 27 -14 127l-174 782l-192 -831q-11 -42 -11 -70q0 -57 58 -57v-33h-433v33q62 0 62 69q0 29 -12 107l-209 958q-12 76 -40 111t-87 35v30h446v-30q-48 0 -73 -20.5t-25 -80.5q0 -7 4 -45z" />
    <glyph glyph-name="X" unicode="X" horiz-adv-x="1376" 
d="M705 928l206 289q15 16 15 36q0 26 -22 43t-56 17v30h399v-30q-44 0 -94.5 -27t-65.5 -53l-303 -432l416 -625q40 -64 69 -93.5t55 -39.5t52 -10v-33h-545v33q26 -4 37 -4q84 0 84 61q0 42 -41 103l-270 415l-289 -432q-26 -38 -26 -72q0 -35 30.5 -53t75.5 -18v-33h-432
v33q46 0 86 33.5t123 142.5l366 512l-352 512q-51 80 -143 80v30h528v-30q-39 0 -69.5 -14t-30.5 -52q0 -30 20 -63z" />
    <glyph glyph-name="Y" unicode="Y" horiz-adv-x="1217" 
d="M655 752l273 448q18 34 18 55q0 28 -27 43t-71 15v30h416v-30q-52 0 -102.5 -25t-74.5 -71l-368 -592v-449q0 -38 19.5 -71t49.5 -53.5t60 -20.5q10 0 16 2v-33h-512v33q60 0 93.5 43.5t33.5 116.5v432l-350 559q-39 64 -77 96.5t-85 32.5v30h529v-30q-58 0 -84.5 -20.5
t-26.5 -53.5q0 -39 31 -86z" />
    <glyph glyph-name="Z" unicode="Z" horiz-adv-x="1167" 
d="M336 113q86 -4 121 -4q173 0 308.5 41.5t232 123.5t155.5 205l31 -14l-193 -498q-30 22 -64.5 27.5t-95.5 5.5h-831l801 1247q-44 1 -81 1.5t-91 0.5q-124 0 -211 -21t-161 -91.5t-128 -208.5l-33 16l97 432q8 -25 25 -35t50 -12t117 -2h752z" />
    <glyph glyph-name="bracketleft" unicode="[" horiz-adv-x="608" 
d="M289 16q27 -21 99 -96t100.5 -102.5t56.5 -40.5h-256l14 14q0 19 -37.5 69t-84.5 95.5t-85 60.5q23 12 28 32t5 65v944q0 44 -5 67t-28 43q29 13 64 41t63.5 57.5t52 61.5t27.5 49l-14 17h256q-48 -19 -145 -117t-111 -109v-1151z" />
    <glyph glyph-name="backslash" unicode="\" horiz-adv-x="1087" 
d="M143 1327h146l542 -1327h-145z" />
    <glyph glyph-name="bracketright" unicode="]" horiz-adv-x="608" 
d="M319 1153q-14 13 -75.5 79t-99 97.5t-81.5 46.5h256l-16 -16q41 -52 113.5 -129.5t111.5 -77.5q-12 -11 -19 -17t-9.5 -12t-3 -15.5t-0.5 -37.5v-991q0 -28 4.5 -42t27.5 -38q-63 -11 -126 -83t-99 -140l16 -17h-256q52 22 87 56.5t86.5 96.5t82.5 87v1153z" />
    <glyph glyph-name="asciicircum" unicode="^" horiz-adv-x="1217" 
d="M592 1184l-240 -559h-129l322 702h110l336 -702h-129z" />
    <glyph glyph-name="underscore" unicode="_" horiz-adv-x="1008" 
d="M0 -127h1024v-176h-1024v176z" />
    <glyph glyph-name="grave" unicode="`" horiz-adv-x="559" 
d="M449 1104l-256 143q-62 36 -62 96q0 44 32.5 78.5t76.5 34.5q49 0 79 -47l177 -242z" />
    <glyph glyph-name="a" unicode="a" horiz-adv-x="1137" 
d="M784 592q-142 -29 -254.5 -87t-169.5 -126.5t-57 -132.5q0 -49 33 -86q52 -58 139 -58q54 0 109 26.5t100.5 81t72.5 136t27 189.5v57zM782 688q2 10 2 31q0 98 -60 148.5t-155 50.5q-79 0 -162.5 -33.5t-153.5 -96t-108 -147.5l31 336q33 -33 66 -33q24 0 95.5 29.5
t142.5 48t175 18.5q150 0 251.5 -69.5t101.5 -186.5v-561q0 -95 48 -142.5t97 -47.5v-33h-289q-26 38 -39.5 79t-23.5 97q-43 -67 -109 -111.5t-146.5 -67t-158.5 -22.5q-103 0 -183.5 36.5t-107.5 101.5q-26 65 -26 127q0 158 184.5 264.5t527.5 183.5z" />
    <glyph glyph-name="b" unicode="b" horiz-adv-x="1296" 
d="M449 911v-671q0 -63 53.5 -100.5t130.5 -37.5q82 0 162.5 40t136 122.5t59.5 200.5q0 126 -47 227.5t-152.5 162t-269.5 60.5q-25 0 -73 -4zM449 1024q91 16 159 16q188 0 325 -82.5t207 -213t70 -273.5q0 -92 -30.5 -177t-91 -151t-154 -104.5t-213.5 -38.5h-625v33
q59 0 94 43.5t35 116.5v960q0 68 -11.5 99.5t-32.5 40t-85 20.5v30l353 66v-385z" />
    <glyph glyph-name="c" unicode="c" horiz-adv-x="1087" 
d="M928 1057l63 -336l-30 -16q-9 58 -59 108t-124 80.5t-153 30.5q-83 0 -153 -38.5t-112.5 -125.5t-42.5 -219v-45q6 -118 69.5 -212.5t160.5 -147t198 -52.5q100 0 183 54.5t129 164.5l30 -14l-110 -322l-49 17q-92 -13 -180 -13q-190 0 -330 60t-220.5 174t-101.5 274
q-4 46 -4 68q0 129 53 243t155 183t241 69q34 0 51 -2q177 -16 252 -16q33 0 44 3.5t20.5 13t19.5 16.5z" />
    <glyph glyph-name="d" unicode="d" 
d="M881 96v705q0 66 -46.5 98.5t-121.5 32.5q-83 0 -171 -41t-150.5 -117.5t-72.5 -181.5q-4 -31 -4 -86q0 -245 147 -328.5t333 -83.5q26 1 46.5 1.5t39.5 0.5zM1087 1409v-1233q0 -68 31.5 -105.5t81.5 -37.5v-33h-575q-176 0 -306.5 74t-198 193t-67.5 255t70.5 254
t214.5 191t350 73q81 0 193 -16v129q0 98 -34.5 129t-94.5 31v30z" />
    <glyph glyph-name="e" unicode="e" horiz-adv-x="1167" 
d="M319 545l529 160q-31 103 -100 156.5t-152 53.5q-71 0 -134.5 -39.5t-104 -115.5t-40.5 -176q1 -10 1.5 -18t0.5 -21zM319 449q38 -120 103 -205t145.5 -127.5t163.5 -42.5q110 0 207 73t149 205l33 -16l-112 -352l-31 16q-116 -39 -254 -39q-110 0 -218 30t-197 90.5
t-149 153.5t-77 214q-6 36 -6 71q0 150 79 266t206.5 178t265.5 62q162 0 293 -90t184 -264z" />
    <glyph glyph-name="f" unicode="f" horiz-adv-x="688" 
d="M383 991q55 0 80.5 -0.5t54.5 -1.5q51 0 75.5 10t47.5 41l-66 -159q-16 14 -96 14h-96v-686q0 -88 37.5 -132t91.5 -44v-33h-465v33q129 0 129 160v702h-143v33q160 0 160 225q0 110 57 181t148.5 102.5t195.5 31.5q94 0 190 -28l-63 -240l-33 17q4 24 4 34
q0 52 -37 80.5t-92 28.5q-72 0 -126 -50t-54 -143v-176z" />
    <glyph glyph-name="g" unicode="g" horiz-adv-x="1087" 
d="M737 113v735q0 37 -45 61.5t-112 24.5q-78 0 -152 -39.5t-123 -130.5t-49 -236q0 -69 24.5 -143t74.5 -137.5t126.5 -102.5t177.5 -39q29 0 78 7zM0 -240l240 240l32 -33q-39 -61 -39 -114q0 -76 62.5 -127.5t136.5 -61.5q64 -18 127 -18q88 0 161 32.5t115 85t42 111.5
q0 50 -27 92q-6 14 -154.5 25.5t-218.5 19.5t-125 35q-116 57 -194 136t-115 171t-37 185q0 94 35 180.5t100.5 156t157 109t197.5 39.5h591v-33q-63 -11 -94.5 -43.5t-31.5 -99.5v-655q0 -48 14.5 -70.5t52.5 -61.5t57 -79t19 -111q0 -75 -45 -137t-122.5 -103.5
t-176.5 -63.5t-207 -22t-216 24t-195.5 72t-141.5 119z" />
    <glyph glyph-name="h" unicode="h" 
d="M399 801q104 108 221.5 166.5t219.5 58.5q104 0 167.5 -61.5t63.5 -180.5v-591q0 -97 35 -128.5t94 -31.5v-33h-465v33q65 0 97 26.5t32 133.5v512q0 83 -37 124t-98 41q-69 0 -147 -44t-130.5 -112.5t-52.5 -138.5v-415q0 -66 37.5 -96.5t91.5 -30.5v-33h-465v33
q60 0 95 25.5t35 101.5v1007q0 79 -30 105.5t-100 40.5v30l336 50v-592z" />
    <glyph glyph-name="i" unicode="i" horiz-adv-x="559" 
d="M129 1296q4 70 48.5 107t101.5 37q56 0 96.5 -37t40.5 -107q0 -81 -38.5 -122t-94.5 -41q-61 0 -107.5 44t-46.5 119zM383 1024v-848q0 -74 30 -108.5t99 -34.5v-33h-465v33q65 0 97 31.5t32 111.5v639q0 76 -33 103.5t-96 42.5v30z" />
    <glyph glyph-name="j" unicode="j" horiz-adv-x="641" 
d="M-272 -319l209 256l30 -17q-35 -56 -35 -98q0 -64 53 -110t119 -46q64 0 108 50t44 155v930q0 86 -27.5 116t-85.5 44v30l336 33v-1200q0 -86 -51.5 -147t-138 -92t-187.5 -31q-105 0 -204 32t-170 95zM223 1313q0 68 45 108.5t105 40.5q57 0 98 -39t41 -110
q0 -50 -20.5 -86t-53.5 -54t-69 -18q-59 0 -102.5 42t-43.5 116z" />
    <glyph glyph-name="k" unicode="k" horiz-adv-x="1167" 
d="M399 160q0 -45 32.5 -86t96.5 -41v-33h-481v33q65 0 105.5 31.5t40.5 128.5v960q0 88 -36 124t-94 36v30l336 50v-834l306 305q26 27 26 60q0 22 -15.5 37.5t-43.5 15.5v31h432v-31q-77 -7 -153.5 -58t-155 -128t-90.5 -86q53 -38 131 -136.5t152 -215.5t116 -208
q12 -48 46.5 -80t82.5 -32v-33h-449v33q76 0 76 57q0 23 -12 53q-18 44 -74 137t-121 180t-108 115l-146 -126v-289z" />
    <glyph glyph-name="l" unicode="l" horiz-adv-x="559" 
d="M47 1343l352 50v-1233q0 -65 27.5 -89.5t85.5 -37.5v-33h-449v33q58 12 85.5 36.5t27.5 90.5v1040q0 56 -37 84.5t-92 28.5v30z" />
    <glyph glyph-name="m" unicode="m" horiz-adv-x="1905" 
d="M399 801q111 116 221.5 174.5t200.5 58.5q69 -2 120 -32t81.5 -87t34.5 -131q85 78 163.5 129t146 75t126.5 24q73 0 125 -34.5t80 -96.5t28 -146v-575q0 -66 37.5 -96.5t91.5 -30.5v-33h-462v33q67 0 97 24.5t30 102.5v495q0 70 -18.5 114.5t-51 64.5t-72.5 20
q-66 0 -138 -42.5t-120.5 -108t-48.5 -128.5v-415q0 -75 35.5 -101t93.5 -26v-33h-465v33q113 0 113 127v495q0 211 -148 211q-63 0 -134.5 -42t-119 -106.5t-47.5 -125.5v-449q0 -110 113 -110v-33h-449v33q60 0 86.5 27.5t26.5 99.5v608q0 176 -129 176v33l289 33
q23 -32 43 -95.5t20 -113.5z" />
    <glyph glyph-name="n" unicode="n" 
d="M399 801q77 105 197.5 169t232.5 64q109 -2 175.5 -63.5t66.5 -186.5v-624q0 -66 37.5 -96.5t91.5 -30.5v-33h-465v33q59 0 86 34.5t27 108.5v512q0 91 -37 134.5t-98 43.5q-62 0 -133 -42.5t-117.5 -110t-46.5 -138.5v-382q0 -91 30 -125.5t82 -34.5v-33h-465v33
q65 0 97.5 34t32.5 126v559q0 129 -33.5 169t-96.5 40v30l289 33q54 -91 54 -172q0 -26 -7 -51z" />
    <glyph glyph-name="o" unicode="o" 
d="M63 512q9 166 92 286t213 181t271 61q102 0 200 -33.5t174 -99t122 -165t49 -230.5q0 -136 -45.5 -239.5t-125 -173t-177.5 -104t-205 -34.5q-146 0 -276.5 62.5t-211 187.5t-80.5 301zM944 528q-7 124 -55 212t-122.5 131.5t-154.5 43.5t-151.5 -42.5t-115.5 -126
t-44 -195.5q0 -37 2 -55q23 -211 110.5 -315.5t207.5 -104.5q81 0 157 48.5t123 137.5t47 201q0 21 -4 65z" />
    <glyph glyph-name="p" unicode="p" 
d="M383 911v-688q0 -59 54 -93t138 -34q82 0 169 37.5t147 113t70 185.5v37q0 100 -29 182.5t-77 139.5t-112 88.5t-135 31.5h-225zM399 14v-286q0 -53 29 -90t84 -37v-33h-465v33q55 0 92 30t37 97v1040q0 84 -12 126.5t-38.5 58.5t-78.5 24v31h608q171 0 297 -75
t191 -195.5t65 -254.5q0 -97 -35 -186t-106.5 -158.5t-177.5 -110t-248 -40.5q-115 0 -242 26z" />
    <glyph glyph-name="q" unicode="q" 
d="M848 96v705q0 46 -49 74t-121 28q-61 0 -129 -23t-123 -70t-89 -123.5t-34 -174.5q0 -165 75 -259.5t178 -127.5t210 -33q61 0 82 4zM848 0q-110 -20 -184 -20q-178 0 -312 80t-203 209.5t-69 269.5q0 124 57 231t172.5 172.5t282.5 65.5h592v-47q-46 0 -79.5 -43.5
t-33.5 -149.5v-1008q0 -68 17 -103t37 -46.5t59 -26.5v-33h-449v33q64 14 88.5 46t24.5 114v256z" />
    <glyph glyph-name="r" unicode="r" horiz-adv-x="768" 
d="M385 801q20 29 48.5 68t69 73.5t105.5 59t156 24.5q12 0 20 -0.5t17 -1.5l-49 -240q-21 27 -56 42.5t-75 15.5q-91 0 -156.5 -78.5t-65.5 -235.5v-399q0 -96 113 -96v-33h-449v33q50 0 81.5 24.5t31.5 71.5v702q0 56 -37 84.5t-92 28.5v33l289 33q33 -44 41 -88.5
t8 -120.5z" />
    <glyph glyph-name="s" unicode="s" horiz-adv-x="1008" 
d="M848 1008l14 -320l-31 -16q0 84 -56.5 140.5t-141.5 83t-170 26.5q-89 0 -127 -25q-35 -27 -35 -70q0 -46 44 -88.5t134 -66.5q155 -37 260 -84t160 -109.5t55 -144.5q0 -86 -57 -191q-30 -55 -88 -93t-135.5 -57.5t-165.5 -19.5q-133 0 -268 43q-57 19 -103 19
q-45 0 -74 -21l-16 402l33 16q8 -166 127 -254t272 -88q105 0 176 39q41 20 59.5 50.5t18.5 66.5q0 55 -41.5 102.5t-116.5 67.5q-127 28 -210.5 54t-148.5 64.5t-100.5 96t-35.5 137.5q0 69 45 131t130 100.5t198 38.5q70 0 139 -14q45 -5 118.5 -21t96.5 -16q35 0 41 21z
" />
    <glyph glyph-name="t" unicode="t" horiz-adv-x="688" 
d="M352 977h144q49 0 83 5.5t76 25.5l-80 -160q-30 33 -96 33h-127v-576q0 -107 42 -157t104 -50q52 0 104 29t70 66l33 -17l-80 -176q-127 -37 -232 -37q-103 0 -161.5 42t-80.5 115.5t-22 182.5v578h-129v30q88 20 130 93.5t42 166.5q0 45 -10 93l190 96v-383z" />
    <glyph glyph-name="u" unicode="u" 
d="M864 193q-86 -94 -207.5 -156t-230.5 -62q-105 0 -169 69t-64 212v545q0 52 -17 84t-43.5 45.5t-52.5 13.5v33l336 31v-656q0 -115 39 -169t102 -54t136.5 49.5t122 123.5t48.5 147v382q0 55 -34 84t-78 29v33l335 31v-848q0 -127 113 -127v-35h-303q-11 42 -18 72
t-11 58.5t-4 64.5z" />
    <glyph glyph-name="v" unicode="v" horiz-adv-x="1087" 
d="M592 176l256 705q6 21 6 39q0 57 -70 57v31h320v-31q-38 0 -77.5 -33.5t-49.5 -79.5l-289 -721q-4 -12 -15 -41t-11 -43q0 -28 36 -28q15 0 23 2v-33h-352v33q45 0 45 28q0 11 -7.5 30.5t-7.5 21.5l-286 784q-29 80 -97 80v31h416v-31q-37 0 -60.5 -22t-23.5 -52
q0 -14 4 -22z" />
    <glyph glyph-name="w" unicode="w" horiz-adv-x="1536" 
d="M528 160l273 817h14l289 -801l207 705q6 15 6 32q0 29 -17 46.5t-53 17.5v31h320v-31q-45 0 -80 -36t-47 -77l-242 -735q-12 -46 -12 -61q0 -35 45 -35l2 -33h-322v33q37 0 37 12q0 4 -7.5 25.5t-12.5 42.5l-160 432l-143 -402q-31 -86 -31 -96q0 -8 7 -11t24 -3v-33
h-306v33q7 -2 15 -2q18 0 18 26t-16 86l-207 721q-8 32 -26 57.5t-40 40.5t-47 15v31h416v-31q-84 -22 -84 -82q0 -21 4 -31z" />
    <glyph glyph-name="x" unicode="x" horiz-adv-x="1137" 
d="M625 705l129 176q34 46 34 65q0 31 -67 31v31h352v-31q-81 0 -143 -66l-256 -303l319 -465q37 -61 67.5 -85.5t76.5 -24.5v-33h-432v33q59 0 59 45q0 26 -27 82l-192 289l-256 -320q-17 -27 -17 -45q0 -51 80 -51v-33h-336v33q83 18 144 110l319 385l-256 369
q-22 46 -50 63t-77 17v31h449v-31q-70 0 -70 -43q0 -24 21 -53z" />
    <glyph glyph-name="y" unicode="y" horiz-adv-x="1008" 
d="M-31 -369l127 289l33 -16q0 -195 109 -195q43 0 88 35t74.5 98.5t29.5 137.5q0 76 -29 149l-305 752q-29 96 -110 96l-2 31h417v-31q-29 0 -48 -17t-19 -49q0 -20 4 -30l221 -609l242 609q4 16 4 22q0 31 -23.5 52.5t-60.5 21.5v31h319v-31q-91 -30 -112 -113l-416 -1057
q-33 -84 -82 -139t-107.5 -80.5t-121.5 -25.5q-113 0 -232 69z" />
    <glyph glyph-name="z" unicode="z" horiz-adv-x="1008" 
d="M367 129q28 -2 87 -6t91 -4q146 0 253 49.5t163 183.5l30 -16l-110 -352q-34 22 -70.5 27t-108.5 5h-655l625 912q-33 -3 -132.5 -5t-161 -15t-112.5 -53t-90 -120l-33 17l50 288q47 -32 157 -32h641z" />
    <glyph glyph-name="braceleft" unicode="{" horiz-adv-x="559" 
d="M209 608q83 -31 113 -103t30 -186q0 -61 -5 -158.5t-5 -115.5q0 -110 36 -174.5t134 -79.5q-29 -4 -80 -4q-90 0 -140.5 34t-68.5 91.5t-18 138.5q0 44 6 138t6 139q0 115 -36.5 186.5t-133.5 93.5q100 17 136 82.5t36 175.5q0 56 -5 145t-5 109q0 137 55 213t211 76h53
q-74 -10 -114 -48.5t-55 -95t-15 -137.5q0 -17 5 -108t5 -146q0 -111 -30 -178t-115 -88z" />
    <glyph glyph-name="bar" unicode="|" horiz-adv-x="1217" 
d="M545 1343h127v-1343h-127v1343z" />
    <glyph glyph-name="braceright" unicode="}" horiz-adv-x="559" 
d="M352 592q-88 18 -116.5 90.5t-28.5 200.5q0 33 2 102t2 102q0 131 -33.5 209.5t-130.5 96.5q13 1 24 1.5t25 0.5q147 0 197.5 -80t50.5 -223q0 -26 -1.5 -73.5l-3 -95t-1.5 -73.5q0 -113 33 -180t125 -78q-89 -15 -121.5 -81t-32.5 -177q0 -19 5 -115t5 -156
q0 -137 -50.5 -213.5t-190.5 -76.5q-18 0 -64 4q65 12 102 50t50.5 94.5t13.5 133.5q0 56 -5 147t-5 111q0 76 11.5 131t44.5 94.5t93 53.5z" />
    <glyph glyph-name="asciitilde" unicode="~" horiz-adv-x="1217" 
d="M80 399q63 112 138.5 160.5t162.5 48.5q58 0 117 -16t120.5 -39t133 -46.5t112.5 -23.5q54 0 93.5 27.5t66.5 95.5l94 -61q-121 -189 -278 -189q-53 0 -103 15.5t-126 48t-127.5 49t-98.5 16.5q-125 0 -209 -149z" />
    <glyph glyph-name="nonbreakingspace" unicode="&#xa0;" horiz-adv-x="1536" 
 />
    <glyph glyph-name="exclamdown" unicode="&#xa1;" horiz-adv-x="688" 
d="M193 672q72 -72 165 -72q91 0 154 72q-33 -108 -54.5 -244.5t-21.5 -280.5q0 -289 92 -483h-368q32 70 53 154.5t32 182t11 194.5q0 241 -63 477zM209 881q0 68 39.5 105.5t95.5 37.5q55 0 95 -37.5t40 -105.5q0 -74 -39.5 -116t-95.5 -42t-95.5 42t-39.5 116z" />
    <glyph glyph-name="cent" unicode="&#xa2;" horiz-adv-x="1296" 
d="M688 1024q-137 -20 -208.5 -111t-71.5 -215q0 -86 35.5 -169.5t101.5 -143.5zM801 1008l-160 -689q76 -26 164 -26q200 0 299 156l-113 -240q-103 -55 -243 -55q-85 0 -140 20l-33 -127q-4 -32 -4 -43q0 -33 13.5 -42t40.5 -9v-33h-226v33q33 0 52 16t28 78l33 162
q-148 59 -227.5 183.5t-79.5 269.5q0 89 31 172t90 147.5t146 101.5t198 37h35l47 193q0 27 -5 37t-26 10v33h207v-33q-24 0 -44 -12.5t-20 -34.5l-49 -193q73 -24 115 -24q40 0 78 24l-64 -352l-33 16q2 9 2 27q0 56 -35 116t-77 81z" />
    <glyph glyph-name="sterling" unicode="&#xa3;" horiz-adv-x="1296" 
d="M432 752q-106 82 -106 209q0 69 34.5 141.5t99 132t148.5 94.5t180 35q18 0 60 -4q44 0 94.5 -15.5t94.5 -49t73 -89t29 -131.5q0 -33 -2 -51l-226 -113l-30 17q88 76 88 155q0 48 -27.5 86t-73 60t-96.5 22q-74 0 -140 -51t-106 -160q-8 -21 -8 -53q0 -56 34.5 -112
t94 -91.5t131.5 -35.5q136 0 262 133l31 -17l-110 -239l-33 16l-287 14q70 -77 103.5 -144.5t33.5 -135.5q0 -76 -43 -152q84 -61 174 -61q52 0 100.5 23t89.5 77.5t68 136.5l33 -14l-143 -403q-92 0 -198 38t-187 109q-32 -71 -130.5 -113.5t-209.5 -42.5q-132 0 -224 60
t-92 176q0 69 71.5 115.5t182.5 46.5q71 0 149 -20.5t156 -61.5q19 44 19 96q0 70 -34.5 131t-92 97t-119.5 36q-110 0 -188 -104l-31 14l94 225l17 -16zM528 193q-33 27 -91.5 43t-112.5 16q-58 0 -98 -19.5t-40 -58.5q0 -13 7 -31q11 -30 46 -45.5t85 -15.5
q68 0 126.5 28.5t77.5 82.5z" />
    <glyph glyph-name="currency" unicode="&#xa4;" horiz-adv-x="1296" 
d="M367 672q0 -88 36.5 -148.5t95.5 -90.5t128 -30q103 0 178.5 70t75.5 199q-4 80 -42 135t-97.5 83t-125.5 28q-102 0 -175.5 -63t-73.5 -183zM160 1008l112 112l80 -80q120 76 273 76q52 0 101.5 -11t90.5 -32.5t64 -48.5l80 96l110 -112l-80 -80q84 -95 84 -260
q0 -85 -22.5 -157.5t-61.5 -111.5l80 -80l-110 -110l-80 80q-53 -47 -121.5 -71.5t-143.5 -24.5q-73 0 -142 24.5t-122 71.5l-80 -80l-96 110l80 80q-51 45 -77.5 114t-26.5 151q0 155 88 264z" />
    <glyph glyph-name="yen" unicode="&#xa5;" horiz-adv-x="1296" 
d="M336 881l-223 336q-42 53 -68.5 74.5t-60.5 21.5v30h495v-30q-43 0 -80 -24t-37 -68q0 -32 23 -68l287 -432l272 416q37 55 37 100q0 36 -25.5 56t-74.5 20v30h399v-30q-91 0 -176 -129l-193 -303h113q44 0 62 5t18 25h33v-176h-33q0 23 -24 28t-103 5h-146l-96 -143h289
q44 0 62 5t18 25h33v-176h-33q0 23 -18 28t-62 5h-289v-319q0 -160 113 -160v-33h-449v33q62 0 87.5 32.5t25.5 127.5v319h-193q-91 0 -119.5 -4.5t-39.5 -28.5h-31v176h31q0 -20 18.5 -25t61.5 -5h272l-113 143h-127q-55 0 -78 -5t-34 -28h-31v176h31q0 -21 14 -25.5
t66 -4.5h96z" />
    <glyph glyph-name="brokenbar" unicode="&#xa6;" horiz-adv-x="1217" 
d="M545 1327h127v-1327h-127v1327z" />
    <glyph glyph-name="section" unicode="&#xa7;" horiz-adv-x="1296" 
d="M672 784q-73 -11 -133 -40t-95.5 -68t-35.5 -78q0 -71 118 -102l385 -111q74 91 74 172q0 53 -29.5 92.5t-74.5 55.5zM512 831q-122 34 -186 101.5t-64 144.5q0 71 49 136.5t139.5 106t204.5 40.5q55 0 137 -20.5t109 -20.5q40 0 60 24l79 -319l-32 -16q-10 78 -66.5 136
t-138.5 88t-162 30q-77 0 -130 -28t-62 -81q0 -77 75.5 -110t255 -82t244.5 -97q67 -50 101 -122t34 -148q0 -86 -38.5 -159t-110.5 -116q46 -26 76 -96t30 -151q0 -136 -76 -232q-73 -83 -176.5 -126.5t-214.5 -43.5q-57 0 -104 8q-45 7 -111 26.5t-94 19.5q-38 0 -68 -29
l-96 418l33 16q36 -124 107 -201.5t159.5 -112t179.5 -34.5q131 0 209 59q38 28 66 70t28 90q0 83 -96 155.5t-317 116.5q-110 26 -181 69t-104 96.5t-33 111.5q0 62 36 121.5t101.5 102t147.5 58.5z" />
    <glyph glyph-name="dieresis" unicode="&#xa8;" horiz-adv-x="559" 
d="M129 1296q4 51 36.5 79t74.5 28q43 0 74.5 -27.5t37.5 -79.5q0 -64 -33.5 -98.5t-80.5 -34.5q-45 0 -77 34t-32 99zM416 1296q6 50 39 77.5t75 27.5q45 0 77 -31t32 -90q0 -56 -30.5 -87.5t-76.5 -31.5t-81 35.5t-35 99.5z" />
    <glyph glyph-name="copyright" unicode="&#xa9;" horiz-adv-x="1599" 
d="M1024 801q0 94 -61 149.5t-146 55.5q-104 0 -181 -84t-77 -244v-23q0 -83 40.5 -157t107 -119t137.5 -45q58 0 113.5 36.5t99.5 108.5l63 -14q-42 -103 -133 -158t-199 -55q-98 0 -187.5 46t-148.5 138t-69 219q0 85 35 181.5t128.5 167.5t252.5 71q134 0 288 -51v-223
h-63zM80 655q9 237 106 395.5t249.5 234t326.5 75.5q112 0 218.5 -30.5t198 -89.5t148.5 -136q75 -98 112.5 -217t37.5 -244q0 -137 -43.5 -255t-120.5 -195q-117 -116 -261.5 -177t-293.5 -61q-126 0 -244 45.5t-212 135t-152.5 221.5t-69.5 298zM176 655
q10 -186 100 -324.5t229 -210t292 -71.5q252 0 420 174q74 83 120.5 203.5t46.5 247.5q0 78 -22 157.5t-69.5 151.5t-125.5 137q-90 74 -196 112t-211 38q-151 0 -279.5 -72.5t-210.5 -211.5t-94 -331z" />
    <glyph glyph-name="ordfeminine" unicode="&#xaa;" horiz-adv-x="848" 
d="M127 672h578v-97h-578v97zM512 1104q-58 -6 -117.5 -29t-97 -57.5t-37.5 -73.5q0 -35 29 -63q14 -21 47 -21q61 0 119.5 57.5t58.5 147.5q0 27 -2 39zM512 1167q0 59 -32.5 87t-86.5 28q-44 0 -89 -18.5t-80 -55.5t-48 -88l-16 17l16 174q8 -2 27 -2q23 0 77.5 18
t85 25.5t83.5 7.5q98 0 136 -45t38 -115v-239q0 -59 23 -94.5t59 -35.5v-30h-160q-13 12 -23 41.5t-10 54.5q-29 -50 -87.5 -79.5t-123.5 -29.5q-72 0 -124 38t-52 106q0 18 2 29q11 68 125.5 124.5t259.5 81.5z" />
    <glyph glyph-name="guillemotleft" unicode="&#xab;" horiz-adv-x="721" 
d="M512 528l96 -256l-63 -32l-160 288l160 273l63 -33zM240 528l96 -256l-64 -32l-159 288l159 273l64 -33z" />
    <glyph glyph-name="logicalnot" unicode="&#xac;" horiz-adv-x="559" 
d="M961 543h-832v129h942v-592h-110v463z" />
    <glyph glyph-name="registered" unicode="&#xae;" horiz-adv-x="1599" 
d="M63 672q6 216 103.5 370.5t254.5 233t329 78.5q160 0 302 -63t242 -187q90 -109 132 -222t42 -229q0 -89 -26.5 -180t-73 -170t-104.5 -143q-54 -57 -132 -98.5t-170.5 -64t-193.5 -22.5q-129 0 -254 41t-225.5 126t-161 218t-64.5 312zM160 672q9 -145 60.5 -259
t136 -192.5t189.5 -118t218 -39.5q227 0 403 146q207 172 207 418q0 121 -50 239t-140 221q-48 57 -116.5 97.5t-148 61t-165.5 20.5q-149 0 -281 -63.5t-217.5 -196.5t-95.5 -334zM639 721q20 -2 59 -2q230 0 230 145q0 77 -56.5 115.5t-128.5 38.5q-43 0 -73.5 -15.5
t-30.5 -41.5v-240zM416 1071h368q135 0 209 -63t74 -150q0 -69 -49.5 -122.5t-136.5 -63.5q55 -34 88 -87t60.5 -125.5t43 -99t45.5 -26.5q10 0 19 2v-47h-97q-67 0 -91.5 37t-59.5 129t-83 139t-147 47h-20v-209q0 -47 7.5 -67t25 -24.5t63.5 -4.5v-47h-319v47
q51 0 73.5 19.5t22.5 76.5v479q0 61 -15.5 87t-80.5 26v47z" />
    <glyph glyph-name="acute" unicode="&#xb4;" horiz-adv-x="559" 
d="M129 1184l174 225q49 57 98 57q28 0 53 -19t39.5 -49.5t14.5 -60.5q0 -54 -43 -73l-305 -127z" />
    <glyph glyph-name="paragraph" unicode="&#xb6;" horiz-adv-x="1008" 
d="M543 1214v-1454h-254v31q50 0 80 28.5t30 84.5v751q-79 4 -144 36t-111.5 85t-69.5 116t-23 130q0 91 43.5 167.5t132.5 123.5t222 47h559v-33q-53 0 -90 -40t-37 -120v-1230q0 -146 127 -146v-31h-271v1454h-194z" />
    <glyph glyph-name="cedilla" unicode="&#xb8;" horiz-adv-x="559" 
d="M385 -80q5 1 8.5 1.5t9.5 0.5q55 0 96.5 -17.5t62 -46t20.5 -61.5q0 -47 -40.5 -93t-122.5 -75.5t-198 -29.5q-6 1 -12 1.5t-16 0.5l-64 127q81 -37 154 -37q71 0 112 34.5t41 75.5q0 28 -18.5 46t-55.5 18q-86 0 -219 -105l50 193q8 -19 26 -19q19 0 53 19l113 47h127z
" />
    <glyph glyph-name="ordmasculine" unicode="&#xba;" horiz-adv-x="848" 
d="M113 1120q7 81 51.5 139.5t110.5 87.5t143 29t146.5 -31.5t112 -93.5t42.5 -147q0 -93 -41.5 -158t-109.5 -97t-146 -32q-127 0 -218 78.5t-91 224.5zM240 1087q11 -98 64.5 -153t119.5 -55q44 0 82.5 24t62 71t23.5 113q0 67 -27 120t-71 81.5t-93 28.5q-42 0 -79 -24.5
t-59.5 -78t-22.5 -127.5zM113 688h606v-96h-606v96z" />
    <glyph glyph-name="guillemotright" unicode="&#xbb;" horiz-adv-x="721" 
d="M481 512l-96 256l64 33l159 -289l-159 -272l-64 32zM209 512l-96 256l63 33l160 -289l-160 -272l-63 32z" />
    <glyph glyph-name="questiondown" unicode="&#xbf;" horiz-adv-x="1057" 
d="M449 864q0 75 39.5 115.5t95.5 40.5q54 0 94.5 -40.5t40.5 -115.5q0 -67 -40.5 -106t-94.5 -39q-55 0 -95 39t-40 106zM672 672q71 -82 71 -154q0 -107 -168 -229q-136 -100 -214 -191.5t-78 -171.5q0 -74 69 -135q65 -59 172 -59q85 0 167 38t135 108.5t53 160.5
q0 28 -15 90h33l94 -401q-12 6 -28 6q-36 0 -126.5 -32.5t-160 -51.5t-164.5 -19q-72 0 -161 19t-170.5 73.5t-117.5 147.5q-16 44 -16 88q0 78 53 141.5t118 104t157 87.5t104 60q68 65 68 123q0 40 -33 62t-98 22v33q114 0 174.5 17t81.5 63z" />
    <glyph glyph-name="Agrave" unicode="&#xc0;" horiz-adv-x="1327" 
d="M465 705q73 0 141 -14t133 -50t125 -96l-223 639zM432 592l-143 -383q-8 -25 -8 -51q0 -52 35.5 -88.5t84.5 -36.5l-2 -33h-430v33q54 0 88.5 24.5t55.5 102.5l385 993q20 55 20 92q0 68 -53 68v30h463v-30q-30 0 -44 -25t-14 -61q0 -33 11 -60l366 -1024q9 -16 25 -44
t37.5 -47t50.5 -19v-33h-479v33q108 40 108 143q0 84 -77.5 180.5t-206.5 163t-273 72.5zM784 1423l-256 144q-61 35 -61 96q0 44 32.5 78.5t75.5 34.5q50 0 80 -47l176 -242z" />
    <glyph glyph-name="Aacute" unicode="&#xc1;" horiz-adv-x="1327" 
d="M465 705q73 0 141 -14t133 -50t125 -96l-223 639zM432 592l-143 -383q-8 -25 -8 -51q0 -52 35.5 -88.5t84.5 -36.5l-2 -33h-430v33q54 0 88.5 24.5t55.5 102.5l385 993q20 55 20 92q0 68 -53 68v30h463v-30q-30 0 -44 -25t-14 -61q0 -33 11 -60l366 -1024q9 -16 25 -44
t37.5 -47t50.5 -19v-33h-479v33q108 40 108 143q0 84 -77.5 180.5t-206.5 163t-273 72.5zM561 1487l174 225q49 57 99 57q29 0 53 -19t38.5 -49.5t14.5 -60.5q0 -54 -43 -73l-305 -127z" />
    <glyph glyph-name="Acircumflex" unicode="&#xc2;" horiz-adv-x="1327" 
d="M465 705q73 0 141 -14t133 -50t125 -96l-223 639zM432 592l-143 -383q-8 -25 -8 -51q0 -52 35.5 -88.5t84.5 -36.5l-2 -33h-430v33q54 0 88.5 24.5t55.5 102.5l385 993q20 55 20 92q0 68 -53 68v30h463v-30q-30 0 -44 -25t-14 -61q0 -33 11 -60l366 -1024q9 -16 25 -44
t37.5 -47t50.5 -19v-33h-479v33q108 40 108 143q0 84 -77.5 180.5t-206.5 163t-273 72.5zM674 1569l-225 -96l-31 63l256 193l270 -177l-31 -63z" />
    <glyph glyph-name="Atilde" unicode="&#xc3;" horiz-adv-x="1327" 
d="M465 705q73 0 141 -14t133 -50t125 -96l-223 639zM432 592l-143 -383q-8 -25 -8 -51q0 -52 35.5 -88.5t84.5 -36.5l-2 -33h-430v33q54 0 88.5 24.5t55.5 102.5l385 993q20 55 20 92q0 68 -53 68v30h463v-30q-30 0 -44 -25t-14 -61q0 -33 11 -60l366 -1024q9 -16 25 -44
t37.5 -47t50.5 -19v-33h-479v33q108 40 108 143q0 84 -77.5 180.5t-206.5 163t-273 72.5zM432 1503h-63q57 174 174 174q28 0 58 -7.5t60 -17.5t60 -19t51 -9q54 0 76 55h63q-46 -184 -186 -184q-41 0 -118 20.5t-109 20.5q-48 0 -66 -33z" />
    <glyph glyph-name="Adieresis" unicode="&#xc4;" horiz-adv-x="1327" 
d="M465 705q73 0 141 -14t133 -50t125 -96l-223 639zM432 592l-143 -383q-8 -25 -8 -51q0 -52 35.5 -88.5t84.5 -36.5l-2 -33h-430v33q54 0 88.5 24.5t55.5 102.5l385 993q20 55 20 92q0 68 -53 68v30h463v-30q-30 0 -44 -25t-14 -61q0 -33 11 -60l366 -1024q9 -16 25 -44
t37.5 -47t50.5 -19v-33h-479v33q108 40 108 143q0 84 -77.5 180.5t-206.5 163t-273 72.5zM449 1599q4 51 36.5 79t73.5 28q43 0 75 -27.5t38 -79.5q0 -64 -34.5 -98.5t-80.5 -34.5q-44 0 -76 34t-32 99zM735 1599q6 49 39.5 77t75.5 28q45 0 76.5 -31.5t31.5 -89.5
q0 -55 -31 -87t-75 -32q-47 0 -82 35.5t-35 99.5z" />
    <glyph glyph-name="Aring" unicode="&#xc5;" horiz-adv-x="1327" 
d="M623 1632q0 -40 24 -62t58 -22q31 0 55 22t24 62t-23.5 62t-55.5 22q-33 0 -57.5 -22t-24.5 -62zM528 1649q7 77 56 118t116 41q73 0 126 -46.5t53 -129.5q-4 -82 -56.5 -127t-122.5 -45q-71 0 -121.5 49t-50.5 140zM465 705q73 0 141 -14t133 -50t125 -96l-223 639z
M432 592l-143 -383q-8 -25 -8 -51q0 -52 35.5 -88.5t84.5 -36.5l-2 -33h-430v33q54 0 88.5 24.5t55.5 102.5l385 993q20 55 20 92q0 68 -53 68v30h463v-30q-30 0 -44 -25t-14 -61q0 -33 11 -60l366 -1024q9 -16 25 -44t37.5 -47t50.5 -19v-33h-479v33q108 40 108 143
q0 84 -77.5 180.5t-206.5 163t-273 72.5z" />
    <glyph glyph-name="AE" unicode="&#xc6;" horiz-adv-x="2032" 
d="M977 848v432l-418 -625q66 45 174.5 94.5t243.5 98.5zM977 735q-99 -34 -181.5 -70.5t-187.5 -107t-209 -172.5q-54 -57 -83 -120t-29 -115t28.5 -84.5t83.5 -32.5v-33h-495v33q37 0 102.5 48.5t89.5 94.5l688 1057q9 23 9 35q0 18 -14.5 31.5t-43.5 13.5v30h977
q44 0 69 5t58 28l96 -432l-30 -16q-30 76 -91 134.5t-132 95.5t-153 57t-151 20q-71 0 -116 -21t-45 -61v-272q138 9 202 20t98.5 45t34.5 111l31 14l82 -479l-33 -17q-10 104 -112.5 157.5t-245.5 53.5q-39 0 -57 -2v-544q0 -60 58.5 -93.5t154.5 -33.5q101 0 209.5 40.5
t201.5 127.5t144 215l30 -17l-176 -512q-42 23 -76 28t-114 5h-801v33q47 9 73 26t41 55t15 109v512z" />
    <glyph glyph-name="Ccedilla" unicode="&#xc7;" horiz-adv-x="1409" 
d="M1233 -33q-36 15 -113 15q-37 0 -86 -2.5t-82 -2.5q-67 0 -104 5l-64 -45h27q52 0 91.5 -17t61 -45.5t21.5 -62.5q0 -68 -74 -115q-39 -29 -85 -44t-86 -21.5t-81 -14t-51 -16.5l-96 159q71 -49 150 -49q73 0 129.5 36.5t56.5 76.5q-13 59 -68 59q-34 0 -118 -35
t-103 -41l16 160q13 -12 39 -12q14 0 31 4t43 11.5t47 13.5q-176 27 -304.5 107.5t-209.5 195t-118 239t-37 246.5q0 139 47 236q50 101 113 169t152.5 110.5t213.5 58.5q58 6 113 6q76 0 178 -12.5t137 -12.5q76 0 117 33l96 -383l-33 -16q-18 63 -59.5 114.5t-103 89.5
t-128.5 56t-141 18q-121 0 -227 -55t-172 -171.5t-66 -287.5v-20q4 -178 94.5 -320.5t231.5 -220.5t289 -78q92 0 176.5 32t152.5 98t113 169l33 -16z" />
    <glyph glyph-name="Egrave" unicode="&#xc8;" 
d="M737 1456l-256 143q-61 37 -61 97q0 28 15.5 54.5t40.5 42t52 15.5q50 0 80 -47l176 -241zM449 961q41 0 90 -2.5t75 -2.5q99 0 152 18.5t53 72.5q0 16 -2 24l31 16l80 -462l-31 -17q-20 135 -102 188.5t-254 53.5q-60 0 -92 -2v-655q0 -48 55.5 -74.5t144.5 -26.5
q80 0 169.5 23t176 69.5t158.5 121.5t111 173l32 -16l-176 -512q-32 16 -65.5 24.5t-110.5 8.5h-864v32q70 0 107.5 42.5t37.5 117.5v961q0 60 -18.5 91.5t-50.5 45.5t-76 22v33h897q80 0 96 14l96 -399l-32 -16q-20 93 -104 162.5t-194.5 107t-211.5 37.5q-80 0 -129 -25
t-49 -73v-176z" />
    <glyph glyph-name="Eacute" unicode="&#xc9;" 
d="M465 1520l174 225q49 57 98 57q28 0 53 -19t39.5 -49.5t14.5 -60.5q0 -52 -43 -74l-305 -126zM432 961q41 0 90 -2.5t76 -2.5q99 0 152 18.5t53 72.5q0 16 -2 24l30 16l80 -462l-30 -17q-20 135 -102 188.5t-255 53.5q-59 0 -92 -2v-655q0 -48 55.5 -74.5t145.5 -26.5
q111 0 233 42t225 129t156 216l33 -16l-176 -512q-32 16 -65.5 24.5t-110.5 8.5h-865v32q71 0 108.5 42.5t37.5 117.5v961q0 60 -18.5 91.5t-50 45t-77.5 22.5v33h898q79 0 96 14l96 -399l-33 -16q-20 93 -104 163t-194.5 107t-211.5 37q-79 0 -128.5 -25.5t-49.5 -72.5
v-176z" />
    <glyph glyph-name="Ecircumflex" unicode="&#xca;" 
d="M608 1602l-225 -97l-31 64l256 192l271 -176l-31 -63zM432 961q41 0 90 -2.5t76 -2.5q99 0 152 18.5t53 72.5q0 16 -2 24l30 16l80 -462l-30 -17q-20 135 -102 188.5t-255 53.5q-59 0 -92 -2v-655q0 -48 55.5 -74.5t145.5 -26.5q111 0 233 42t225 129t156 216l33 -16
l-176 -512q-32 16 -65.5 24.5t-110.5 8.5h-865v32q71 0 108.5 42.5t37.5 117.5v961q0 60 -18.5 91.5t-50 45t-77.5 22.5v33h898q79 0 96 14l96 -399l-33 -16q-20 93 -104 163t-194.5 107t-211.5 37q-79 0 -128.5 -25.5t-49.5 -72.5v-176z" />
    <glyph glyph-name="Edieresis" unicode="&#xcb;" 
d="M369 1632q4 51 36.5 79t73.5 28q43 0 75 -27.5t38 -79.5q0 -64 -33.5 -98.5t-81.5 -34.5q-44 0 -76 34t-32 99zM655 1632q7 50 40 77.5t75 27.5q45 0 77 -31t32 -90q0 -56 -31.5 -87.5t-75.5 -31.5q-47 0 -82 35.5t-35 99.5zM479 961q41 0 90 -2.5t76 -2.5q99 0 152 18.5
t53 72.5q0 16 -2 24l31 16l79 -462l-30 -17q-20 135 -102 188.5t-255 53.5q-59 0 -92 -2v-655q0 -48 55.5 -74.5t145.5 -26.5q111 0 233 42t225 129t156 216l33 -16l-176 -512q-32 16 -65.5 24.5t-110.5 8.5h-864v32q70 0 107.5 42.5t37.5 117.5v961q0 60 -18.5 91.5
t-49.5 45t-77 22.5v33h897q79 0 96 14l96 -399l-33 -16q-20 93 -104 163t-194.5 107t-211.5 37q-79 0 -128.5 -25.5t-49.5 -72.5v-176z" />
    <glyph glyph-name="Igrave" unicode="&#xcc;" horiz-adv-x="641" 
d="M449 1440l-256 143q-62 36 -62 96q0 44 32.5 78.5t76.5 34.5q49 0 79 -47l177 -242zM63 1327h496v-33q-127 0 -127 -143v-975q0 -71 41.5 -115.5t101.5 -44.5v-32h-512v32q130 0 130 160v961q0 71 -35 114t-95 43v33z" />
    <glyph glyph-name="Iacute" unicode="&#xcd;" horiz-adv-x="641" 
d="M193 1503l174 226q48 57 98 57q29 0 53 -19t38.5 -50t14.5 -60q0 -55 -43 -74l-305 -127zM63 1343h496v-32q-127 0 -127 -144v-974q0 -71 41.5 -115.5t101.5 -44.5v-33h-512v33q130 0 130 160v960q0 73 -35 115.5t-95 42.5v32z" />
    <glyph glyph-name="Icircumflex" unicode="&#xce;" horiz-adv-x="641" 
d="M322 1585l-226 -96l-30 63l256 193l270 -176l-31 -64zM63 1343h496v-32q-127 0 -127 -144v-974q0 -71 41.5 -115.5t101.5 -44.5v-33h-512v33q130 0 130 160v960q0 73 -35 115.5t-95 42.5v32z" />
    <glyph glyph-name="Idieresis" unicode="&#xcf;" horiz-adv-x="641" 
d="M82 1616q4 51 36 78.5t75 27.5q44 0 75 -27t37 -79q0 -64 -33.5 -98.5t-81.5 -34.5q-44 0 -76 34t-32 99zM369 1616q6 50 38 77t76 27q45 0 77 -31t32 -90q0 -55 -30.5 -86.5t-76.5 -31.5t-81 35.5t-35 99.5zM63 1343h496v-32q-127 0 -127 -144v-974q0 -71 41.5 -115.5
t101.5 -44.5v-33h-512v33q130 0 130 160v960q0 73 -35 115.5t-95 42.5v32z" />
    <glyph glyph-name="Ntilde" unicode="&#xd1;" horiz-adv-x="1409" 
d="M1087 848v352q0 63 -30.5 80t-112.5 33v30h416v-30q-61 -15 -95 -37.5t-34 -75.5v-991q0 -176 129 -176v-33h-399v33q58 0 92 34t34 93v305q0 75 -20.5 105t-91.5 85l-639 529v-991q0 -85 38 -115t105 -45v-33h-416v33q46 8 72.5 24t42 49.5t15.5 86.5v974
q0 79 -30 105.5t-100 40.5v30h545v-30q-35 -9 -35 -27q0 -23 68 -69zM496 1552h-64q57 174 174 174q28 0 58 -7.5t60 -17.5t60 -19t52 -9q54 0 75 56h64q-46 -185 -187 -185q-42 0 -118 20.5t-109 20.5q-47 0 -65 -33z" />
    <glyph glyph-name="Ograve" unicode="&#xd2;" horiz-adv-x="1616" 
d="M913 1473l-256 143q-61 35 -61 96q0 44 32.5 78.5t76.5 34.5q49 0 79 -47l177 -242zM367 545q39 -116 93.5 -201t118.5 -138t135.5 -79.5t145.5 -26.5q113 0 213.5 60t161.5 170.5t61 253.5q0 199 -127 424q-45 79 -109 134t-139 83t-155 28q-82 0 -158.5 -32t-135 -93
t-93.5 -156.5t-35 -217.5q0 -92 23 -209zM817 1376q179 -7 317 -68t228 -157.5t134 -216.5t44 -250q0 -135 -46 -259t-137 -224t-224.5 -158.5t-298.5 -58.5h-33q-168 6 -302 66t-226 160.5t-138.5 223.5t-46.5 254q0 175 82 330t248 253t399 105z" />
    <glyph glyph-name="Oacute" unicode="&#xd3;" horiz-adv-x="1616" 
d="M608 1536l174 225q50 58 99 58q29 0 53 -19t38.5 -50t14.5 -60q0 -55 -43 -74l-305 -127zM350 545q49 -150 128 -250.5t172.5 -147.5t193.5 -47q113 0 213.5 60t161.5 170.5t61 253.5q0 199 -127 424q-31 57 -78.5 105.5t-99 78t-108.5 45.5t-117 16q-82 0 -158.5 -32
t-135 -93t-93.5 -156.5t-35 -217.5q0 -90 22 -209zM801 1376q178 -7 316 -68t228 -157.5t134.5 -216t44.5 -250.5q0 -135 -46 -259t-138 -224.5t-224 -158.5t-299 -58h-33q-168 6 -302.5 66.5t-225.5 161t-137.5 223t-46.5 253.5q0 175 82 330t248 253t399 105z" />
    <glyph glyph-name="Ocircumflex" unicode="&#xd4;" horiz-adv-x="1616" 
d="M754 1602l-226 -97l-30 64l256 192l270 -176l-31 -63zM350 545q49 -150 128 -250.5t172.5 -147.5t193.5 -47q113 0 213.5 60t161.5 170.5t61 253.5q0 199 -127 424q-31 57 -78.5 105.5t-99 78t-108.5 45.5t-117 16q-82 0 -158.5 -32t-135 -93t-93.5 -156.5t-35 -217.5
q0 -90 22 -209zM801 1376q178 -7 316 -68t228 -157.5t134.5 -216t44.5 -250.5q0 -135 -46 -259t-138 -224.5t-224 -158.5t-299 -58h-33q-168 6 -302.5 66.5t-225.5 161t-137.5 223t-46.5 253.5q0 175 82 330t248 253t399 105z" />
    <glyph glyph-name="Otilde" unicode="&#xd5;" horiz-adv-x="1616" 
d="M592 1536h-64q32 96 75.5 135t98.5 39q28 0 58 -7.5t60 -17.5t60 -19t52 -9q54 0 76 55h63q-46 -184 -186 -184q-41 0 -118 20.5t-110 20.5q-47 0 -65 -33zM350 545q49 -150 128 -250.5t172.5 -147.5t193.5 -47q113 0 213.5 60t161.5 170.5t61 253.5q0 199 -127 424
q-31 57 -78.5 105.5t-99 78t-108.5 45.5t-117 16q-82 0 -158.5 -32t-135 -93t-93.5 -156.5t-35 -217.5q0 -90 22 -209zM801 1376q178 -7 316 -68t228 -157.5t134.5 -216t44.5 -250.5q0 -135 -46 -259t-138 -224.5t-224 -158.5t-299 -58h-33q-168 6 -302.5 66.5t-225.5 161
t-137.5 223t-46.5 253.5q0 175 82 330t248 253t399 105z" />
    <glyph glyph-name="Odieresis" unicode="&#xd6;" horiz-adv-x="1616" 
d="M514 1649q4 50 37 78t74 28q42 0 74 -28t38 -78q0 -64 -33.5 -98.5t-80.5 -34.5q-45 0 -77 33.5t-32 99.5zM801 1649q6 50 39 77t75 27q45 0 77 -31t32 -90q0 -55 -31 -87t-75 -32q-46 0 -81.5 36.5t-35.5 99.5zM350 545q49 -150 128 -250.5t172.5 -147.5t193.5 -47
q113 0 213.5 60t161.5 170.5t61 253.5q0 199 -127 424q-31 57 -78.5 105.5t-99 78t-108.5 45.5t-117 16q-82 0 -158.5 -32t-135 -93t-93.5 -156.5t-35 -217.5q0 -90 22 -209zM801 1376q178 -7 316 -68t228 -157.5t134.5 -216t44.5 -250.5q0 -135 -46 -259t-138 -224.5
t-224 -158.5t-299 -58h-33q-168 6 -302.5 66.5t-225.5 161t-137.5 223t-46.5 253.5q0 175 82 330t248 253t399 105z" />
    <glyph glyph-name="Oslash" unicode="&#xd8;" horiz-adv-x="1583" 
d="M977 1329l63 144q11 19 11 32q0 19 -27 31h193q-19 -17 -41.5 -37.5t-22.5 -42.5l-66 -160q120 -60 220 -165t158.5 -237t58.5 -269q0 -232 -164 -416q-72 -82 -166.5 -139.5t-196.5 -85t-206 -27.5q-133 0 -246 43l-49 -113q-13 -23 -13 -45t13 -35h-207q30 11 44.5 33
t35.5 64l63 143q-115 63 -198 163t-125.5 220.5t-42.5 241.5q0 176 67.5 309t176.5 215t237 121t248 39q110 0 182 -27zM928 1200q-92 43 -185 43q-94 0 -173.5 -43.5t-139 -121.5t-91.5 -176.5t-32 -205.5q0 -83 21.5 -167t67.5 -162.5t116 -143.5zM1024 1137l-416 -977
q133 -99 262 -99q85 0 160.5 45t128.5 123t81 176t28 205q0 100 -26 195t-80.5 180.5t-137.5 151.5z" />
    <glyph glyph-name="Ugrave" unicode="&#xd9;" horiz-adv-x="1376" 
d="M817 1456l-256 143q-61 37 -61 97q0 28 15.5 54.5t40.5 42t52 15.5q50 0 80 -47l176 -241zM31 1343h512v-30q-59 -12 -101.5 -44.5t-42.5 -68.5v-751q0 -118 41 -196.5t119.5 -117.5t192.5 -39q153 0 252.5 87.5t99.5 295.5v658q0 95 -33 128t-96 48v30h401v-30
q-45 -12 -69.5 -26.5t-42 -57.5t-17.5 -125v-639q0 -148 -61.5 -260.5t-176 -175t-270.5 -62.5h-34q-111 0 -232 32.5t-209 115.5t-88 221v848q0 58 -35.5 87.5t-109.5 41.5v30z" />
    <glyph glyph-name="Uacute" unicode="&#xda;" horiz-adv-x="1376" 
d="M528 1520l174 225q49 57 99 57q29 0 53 -19t38.5 -49.5t14.5 -60.5q0 -53 -43 -74l-305 -126zM31 1343h512v-30q-59 -12 -101.5 -44.5t-42.5 -68.5v-751q0 -118 41 -196.5t119.5 -117.5t192.5 -39q153 0 252.5 87.5t99.5 295.5v658q0 95 -33 128t-96 48v30h401v-30
q-45 -12 -69.5 -26.5t-42 -57.5t-17.5 -125v-639q0 -148 -61.5 -260.5t-176 -175t-270.5 -62.5h-34q-111 0 -232 32.5t-209 115.5t-88 221v848q0 58 -35.5 87.5t-109.5 41.5v30z" />
    <glyph glyph-name="Ucircumflex" unicode="&#xdb;" horiz-adv-x="1376" 
d="M705 1602l-226 -97l-30 64l256 192l270 -176l-31 -63zM31 1343h512v-30q-59 -12 -101.5 -44.5t-42.5 -68.5v-751q0 -118 41 -196.5t119.5 -117.5t192.5 -39q153 0 252.5 87.5t99.5 295.5v658q0 95 -33 128t-96 48v30h401v-30q-45 -12 -69.5 -26.5t-42 -57.5t-17.5 -125
v-639q0 -148 -61.5 -260.5t-176 -175t-270.5 -62.5h-34q-111 0 -232 32.5t-209 115.5t-88 221v848q0 58 -35.5 87.5t-109.5 41.5v30z" />
    <glyph glyph-name="Udieresis" unicode="&#xdc;" horiz-adv-x="1376" 
d="M465 1649q4 50 37 78t73 28q42 0 74.5 -28t38.5 -78q0 -64 -33.5 -98.5t-81.5 -34.5q-44 0 -76 33.5t-32 99.5zM752 1649q6 50 39 77t75 27q45 0 77 -31t32 -90q0 -56 -30.5 -87.5t-76.5 -31.5q-45 0 -80.5 36.5t-35.5 99.5zM31 1343h512v-30q-59 -12 -101.5 -44.5
t-42.5 -68.5v-751q0 -118 41 -196.5t119.5 -117.5t192.5 -39q153 0 252.5 87.5t99.5 295.5v658q0 95 -33 128t-96 48v30h401v-30q-45 -12 -69.5 -26.5t-42 -57.5t-17.5 -125v-639q0 -148 -61.5 -260.5t-176 -175t-270.5 -62.5h-34q-111 0 -232 32.5t-209 115.5t-88 221v848
q0 58 -35.5 87.5t-109.5 41.5v30z" />
    <glyph glyph-name="germandbls" unicode="&#xdf;" horiz-adv-x="1217" 
d="M193 752q0 145 28 258.5t84.5 191t144.5 118t205 40.5q166 0 247 -74t81 -180q0 -73 -36.5 -136.5t-98.5 -88.5q-43 -13 -43 -31q0 -28 92 -66q90 -36 149.5 -92.5t88 -124.5t28.5 -141q0 -113 -61.5 -218t-172.5 -171t-247 -66q-130 0 -266 62l96 207q19 -166 158 -166
q67 0 138 40.5t103 94.5q58 85 58 172q0 88 -63.5 160.5t-200.5 113.5q-187 57 -187 129q0 70 187 144q56 24 83 78.5t27 130.5q0 45 -52.5 82.5t-117.5 37.5q-60 0 -111.5 -39t-84.5 -129.5t-33 -240.5v-641q0 -133 -53 -229.5t-144.5 -147.5t-208.5 -51q-77 0 -170 28
l31 130q47 -54 121 -54q82 0 141.5 82.5t59.5 257.5v432q-111 0 -160 -14l47 143q24 -23 42.5 -27.5t70.5 -4.5z" />
    <glyph glyph-name="agrave" unicode="&#xe0;" horiz-adv-x="1137" 
d="M688 1137l-256 143q-61 37 -61 96q0 44 32.5 78.5t75.5 34.5q50 0 80 -47l176 -242zM768 592q-142 -29 -254.5 -87t-169.5 -126.5t-57 -132.5q0 -48 32 -86q52 -58 140 -58q54 0 109 26.5t100.5 81t72.5 136t27 189.5v57zM766 688q2 10 2 31q0 98 -60 148.5t-155 50.5
q-79 0 -162.5 -33.5t-153.5 -96t-108 -147.5l31 336q32 -33 65 -33q23 0 59.5 14.5t89 35t117.5 33.5t148 13q95 0 176.5 -31t128.5 -90t47 -135v-561q0 -95 49 -142.5t97 -47.5v-33h-289q-42 60 -64 176q-62 -98 -176.5 -149.5t-236.5 -51.5q-103 0 -183.5 36.5t-107.5 101
t-27 127.5q0 108 88 191.5t247.5 145.5t377.5 111z" />
    <glyph glyph-name="aacute" unicode="&#xe1;" horiz-adv-x="1137" 
d="M369 1200l174 225q50 58 98 58q44 0 75.5 -40.5t31.5 -88.5q0 -54 -43 -74l-306 -127zM752 592q-219 -46 -350.5 -146t-131.5 -200q0 -47 33 -86q52 -58 139 -58q54 0 110 26.5t101 81t72 136t27 189.5v57zM750 688q2 10 2 31q0 98 -60 148.5t-155 50.5
q-80 0 -163.5 -33.5t-153 -96.5t-107.5 -147l30 336q33 -33 66 -33q23 0 59.5 14.5t89 35t117.5 33.5t148 13q95 0 176.5 -31t128.5 -90t47 -135v-561q0 -95 48 -142.5t97 -47.5v-33h-289q-43 64 -63 176q-43 -67 -109 -111.5t-146.5 -67t-158.5 -22.5q-103 0 -183.5 36.5
t-107.5 101.5q-26 65 -26 127q0 108 88 191.5t247.5 145.5t377.5 111z" />
    <glyph glyph-name="acircumflex" unicode="&#xe2;" horiz-adv-x="1137" 
d="M561 1280l-225 -96l-31 63l256 193l270 -176l-30 -64zM752 592q-219 -46 -350.5 -146t-131.5 -200q0 -47 33 -86q52 -58 139 -58q54 0 110 26.5t101 81t72 136t27 189.5v57zM750 688q2 10 2 31q0 98 -60 148.5t-155 50.5q-80 0 -163.5 -33.5t-153 -96.5t-107.5 -147
l30 336q33 -33 66 -33q23 0 59.5 14.5t89 35t117.5 33.5t148 13q95 0 176.5 -31t128.5 -90t47 -135v-561q0 -95 48 -142.5t97 -47.5v-33h-289q-43 64 -63 176q-43 -67 -109 -111.5t-146.5 -67t-158.5 -22.5q-103 0 -183.5 36.5t-107.5 101.5q-26 65 -26 127q0 108 88 191.5
t247.5 145.5t377.5 111z" />
    <glyph glyph-name="atilde" unicode="&#xe3;" horiz-adv-x="1137" 
d="M369 1217h-64q32 96 75.5 135t98.5 39q28 0 58 -7.5t60 -17.5t61.5 -19.5t50.5 -9.5q54 0 75 56h64q-25 -102 -73 -143.5t-113 -41.5q-41 0 -118 20.5t-110 20.5q-46 0 -65 -32zM768 592q-142 -29 -254.5 -87t-169.5 -126.5t-57 -132.5q0 -48 32 -86q52 -58 140 -58
q54 0 109 26.5t100.5 81t72.5 136t27 189.5v57zM766 688q2 10 2 31q0 98 -60 148.5t-155 50.5q-79 0 -162.5 -33.5t-153.5 -96t-108 -147.5l31 336q32 -33 65 -33q23 0 59.5 14.5t89 35t117.5 33.5t148 13q95 0 176.5 -31t128.5 -90t47 -135v-561q0 -95 49 -142.5t97 -47.5
v-33h-289q-42 60 -64 176q-62 -98 -176.5 -149.5t-236.5 -51.5q-103 0 -183.5 36.5t-107.5 101t-27 127.5q0 108 88 191.5t247.5 145.5t377.5 111z" />
    <glyph glyph-name="adieresis" unicode="&#xe4;" horiz-adv-x="1137" 
d="M352 1329q4 52 36.5 79.5t74.5 27.5q43 0 74.5 -27.5t37.5 -79.5q0 -64 -33.5 -98.5t-80.5 -34.5q-46 0 -77.5 34.5t-31.5 98.5zM639 1329q6 50 39 77.5t76 27.5q45 0 76.5 -31.5t31.5 -89.5q0 -55 -31 -87t-75 -32q-47 0 -82 35.5t-35 99.5zM784 592
q-142 -29 -254.5 -87t-169.5 -126.5t-57 -132.5q0 -49 33 -86q52 -58 139 -58q54 0 109 26.5t100.5 81t72.5 136t27 189.5v57zM782 688q2 10 2 31q0 98 -60 148.5t-155 50.5q-79 0 -162.5 -33.5t-153.5 -96t-108 -147.5l31 336q33 -33 66 -33q24 0 95.5 29.5t142.5 48
t175 18.5q150 0 251.5 -69.5t101.5 -186.5v-561q0 -95 48 -142.5t97 -47.5v-33h-289q-26 38 -39.5 79t-23.5 97q-43 -67 -109 -111.5t-146.5 -67t-158.5 -22.5q-103 0 -183.5 36.5t-107.5 101.5q-26 65 -26 127q0 158 184.5 264.5t527.5 183.5z" />
    <glyph glyph-name="aring" unicode="&#xe5;" horiz-adv-x="1137" 
d="M543 1343q0 -40 24.5 -61.5t57.5 -21.5q32 0 56 21.5t24 61.5t-23.5 62t-56.5 22t-57.5 -22t-24.5 -62zM449 1360q5 54 29 88t62.5 53t80.5 19q73 0 125.5 -47.5t52.5 -129.5q-4 -83 -56 -127.5t-122 -44.5q-71 0 -121.5 49t-50.5 140zM768 592q-142 -29 -254.5 -87
t-169.5 -126.5t-57 -132.5q0 -48 32 -86q52 -58 140 -58q54 0 109 26.5t100.5 81t72.5 136t27 189.5v57zM766 688q2 10 2 31q0 98 -60 148.5t-155 50.5q-79 0 -162.5 -33.5t-153.5 -96t-108 -147.5l31 336q32 -33 65 -33q23 0 59.5 14.5t89 35t117.5 33.5t148 13
q95 0 176.5 -31t128.5 -90t47 -135v-561q0 -95 49 -142.5t97 -47.5v-33h-289q-42 60 -64 176q-62 -98 -176.5 -149.5t-236.5 -51.5q-103 0 -183.5 36.5t-107.5 101t-27 127.5q0 108 88 191.5t247.5 145.5t377.5 111z" />
    <glyph glyph-name="ae" unicode="&#xe6;" horiz-adv-x="1825" 
d="M784 672v26q0 97 -68.5 153t-170.5 56q-121 0 -232.5 -80.5t-167.5 -234.5l31 385q23 -31 74 -31q40 0 143 27t152 38t123 11q167 0 293 -111q64 39 121 62.5t114 35t104 11.5q91 0 172.5 -33.5t140 -86.5t96.5 -117.5t50 -127.5l-768 -206q29 -120 91 -200t144.5 -118.5
t170.5 -38.5q78 0 152 29.5t128.5 83.5t81.5 131l33 -17l-113 -352q-11 29 -55 29q-27 0 -118.5 -16.5t-157.5 -16.5q-122 0 -244 50.5t-240 179.5q-63 -75 -142.5 -126t-167.5 -77.5t-169 -26.5q-111 0 -193 46.5t-110 133.5q-14 49 -14 97q0 92 58.5 159t153 111t170 66.5
t334.5 95.5zM784 559q-127 -17 -239.5 -67.5t-177 -117t-64.5 -130.5q0 -58 49 -101q67 -53 133 -53q77 0 146.5 61t111 169t41.5 239zM977 545l559 160q-42 97 -116.5 146.5t-155.5 49.5q-75 0 -141.5 -42t-106 -122t-39.5 -192z" />
    <glyph glyph-name="ccedilla" unicode="&#xe7;" horiz-adv-x="1087" 
d="M911 1040l66 -335l-33 -17q-7 57 -57.5 107.5t-126 81t-152.5 30.5q-81 0 -150.5 -38.5t-112 -124t-42.5 -220.5v-45q4 -117 67 -211.5t160.5 -147t198.5 -52.5q102 0 185 55t126 166l31 -17l-127 -305l-63 17q1 0 -61.5 -3.5t-78.5 -3.5q-46 0 -100 7l-82 -64
q44 14 70 14q37 0 70 -17.5t51 -45.5t18 -61q0 -65 -63 -113q-50 -42 -105 -56.5t-127.5 -22t-87.5 -17.5l-82 159q56 -51 158 -51q42 0 81.5 11t67 34t31.5 53q0 70 -80 70q-34 0 -73 -11.5t-81 -35.5t-71 -53l33 176q24 -12 32 -12q10 0 48 12l79 31q-148 36 -246.5 111.5
t-145 169t-54.5 200.5q-4 40 -4 65q0 129 52 243t154 183.5t240 69.5q35 0 51 -2q181 -16 252 -16q33 0 45 3.5t21 12.5t18 16z" />
    <glyph glyph-name="egrave" unicode="&#xe8;" horiz-adv-x="1167" 
d="M721 1104l-256 143q-62 37 -62 96q0 44 32.5 78.5t76.5 34.5q49 0 80 -47l176 -242zM319 545l529 160q-31 103 -100 156.5t-152 53.5q-71 0 -134.5 -39.5t-104 -115.5t-40.5 -176q1 -10 1.5 -18t0.5 -21zM319 449q38 -120 103 -205t145.5 -127.5t163.5 -42.5
q110 0 207 73t149 205l33 -16l-112 -352l-31 16q-116 -39 -254 -39q-110 0 -218 30t-197 90.5t-149 153.5t-77 214q-6 36 -6 71q0 150 79 266t206.5 178t265.5 62q162 0 293 -90t184 -264z" />
    <glyph glyph-name="eacute" unicode="&#xe9;" horiz-adv-x="1167" 
d="M385 1167l174 226q49 57 98 57q28 0 53 -19t39.5 -50t14.5 -60q0 -53 -43 -74l-305 -127zM319 545l529 160q-31 103 -100 156.5t-152 53.5q-71 0 -134.5 -39.5t-104 -115.5t-40.5 -176q1 -10 1.5 -18t0.5 -21zM319 449q38 -120 103 -205t145.5 -127.5t163.5 -42.5
q110 0 207 73t149 205l33 -16l-112 -352l-31 16q-116 -39 -254 -39q-110 0 -218 30t-197 90.5t-149 153.5t-77 214q-6 36 -6 71q0 150 79 266t206.5 178t265.5 62q162 0 293 -90t184 -264z" />
    <glyph glyph-name="ecircumflex" unicode="&#xea;" horiz-adv-x="1167" 
d="M594 1249l-225 -96l-31 64l256 192l270 -176l-30 -64zM319 545l529 160q-31 103 -100 156.5t-152 53.5q-71 0 -134.5 -39.5t-104 -115.5t-40.5 -176q1 -10 1.5 -18t0.5 -21zM319 449q38 -120 103 -205t145.5 -127.5t163.5 -42.5q110 0 207 73t149 205l33 -16l-112 -352
l-31 16q-116 -39 -254 -39q-110 0 -218 30t-197 90.5t-149 153.5t-77 214q-6 36 -6 71q0 150 79 266t206.5 178t265.5 62q162 0 293 -90t184 -264z" />
    <glyph glyph-name="edieresis" unicode="&#xeb;" horiz-adv-x="1167" 
d="M338 1280q4 51 36 78.5t75 27.5q44 0 75 -27t37 -79q0 -64 -33.5 -98.5t-81.5 -34.5q-44 0 -76 34t-32 99zM625 1280q6 50 38 77t76 27q46 0 77.5 -30.5t31.5 -89.5q0 -56 -30.5 -87.5t-76.5 -31.5t-81 35.5t-35 99.5zM319 545l529 160q-31 103 -100 156.5t-152 53.5
q-71 0 -134.5 -39.5t-104 -115.5t-40.5 -176q1 -10 1.5 -18t0.5 -21zM319 449q38 -120 103 -205t145.5 -127.5t163.5 -42.5q110 0 207 73t149 205l33 -16l-112 -352l-31 16q-116 -39 -254 -39q-110 0 -218 30t-197 90.5t-149 153.5t-77 214q-6 36 -6 71q0 150 79 266
t206.5 178t265.5 62q162 0 293 -90t184 -264z" />
    <glyph glyph-name="igrave" unicode="&#xec;" horiz-adv-x="559" 
d="M432 1104l-256 143q-61 37 -61 96q0 44 32.5 78.5t75.5 34.5q50 0 80 -47l176 -242zM399 1024v-881q0 -59 27 -84.5t86 -25.5v-33h-449v33q56 0 84.5 22.5t28.5 87.5v672q0 67 -28 106.5t-85 39.5v30z" />
    <glyph glyph-name="iacute" unicode="&#xed;" horiz-adv-x="559" 
d="M113 1184l174 225q49 57 98 57q44 0 75.5 -40.5t31.5 -88.5q0 -53 -43 -73l-306 -127zM399 1024v-881q0 -59 27 -84.5t86 -25.5v-33h-449v33q56 0 84.5 22.5t28.5 87.5v672q0 67 -28 106.5t-85 39.5v30z" />
    <glyph glyph-name="icircumflex" unicode="&#xee;" horiz-adv-x="559" 
d="M256 1264l-225 -97l-31 64l256 192l270 -176l-30 -63zM399 1024v-881q0 -59 27 -84.5t86 -25.5v-33h-449v33q56 0 84.5 22.5t28.5 87.5v672q0 67 -28 106.5t-85 39.5v30z" />
    <glyph glyph-name="idieresis" unicode="&#xef;" horiz-adv-x="559" 
d="M16 1313q6 50 38.5 78t72.5 28q42 0 74.5 -27.5t38.5 -78.5q0 -64 -34.5 -98.5t-80.5 -34.5t-77.5 34.5t-31.5 98.5zM303 1313q6 49 39.5 76.5t75.5 27.5q45 0 76.5 -31.5t31.5 -89.5q0 -54 -31 -86t-75 -32q-47 0 -82 35.5t-35 99.5zM399 1024v-881q0 -59 27 -84.5
t86 -25.5v-33h-449v33q56 0 84.5 22.5t28.5 87.5v672q0 67 -28 106.5t-85 39.5v30z" />
    <glyph glyph-name="ntilde" unicode="&#xf1;" 
d="M401 1200h-63q57 174 174 174q28 0 58 -7.5t60 -17.5t60 -19t51 -9q56 0 76 55h64q-46 -184 -187 -184q-41 0 -118 20.5t-109 20.5q-46 0 -66 -33zM399 801q77 105 197.5 169t232.5 64q109 -2 175.5 -63.5t66.5 -186.5v-624q0 -66 37.5 -96.5t91.5 -30.5v-33h-465v33
q59 0 86 34.5t27 108.5v512q0 91 -37 134.5t-98 43.5q-62 0 -133 -42.5t-117.5 -110t-46.5 -138.5v-382q0 -91 30 -125.5t82 -34.5v-33h-465v33q65 0 97.5 34t32.5 126v559q0 129 -33.5 169t-96.5 40v30l289 33q54 -91 54 -172q0 -26 -7 -51z" />
    <glyph glyph-name="ograve" unicode="&#xf2;" 
d="M737 1120l-256 144q-61 35 -61 96q0 44 32.5 78.5t75.5 34.5q50 0 80 -48l176 -241zM63 512q9 166 92 286t213 181t271 61q102 0 200 -33.5t174 -99t122 -165t49 -230.5q0 -136 -45.5 -239.5t-125 -173t-177.5 -104t-205 -34.5q-146 0 -276.5 62.5t-211 187.5t-80.5 301z
M944 528q-7 124 -55 212t-122.5 131.5t-154.5 43.5t-151.5 -42.5t-115.5 -126t-44 -195.5q0 -37 2 -55q23 -211 110.5 -315.5t207.5 -104.5q81 0 157 48.5t123 137.5t47 201q0 21 -4 65z" />
    <glyph glyph-name="oacute" unicode="&#xf3;" 
d="M432 1184l174 225q49 57 99 57q29 0 53 -19t38.5 -49.5t14.5 -60.5q0 -54 -43 -73l-305 -127zM63 512q9 166 92 286t213 181t271 61q102 0 200 -33.5t174 -99t122 -165t49 -230.5q0 -136 -45.5 -239.5t-125 -173t-177.5 -104t-205 -34.5q-146 0 -276.5 62.5t-211 187.5
t-80.5 301zM944 528q-7 124 -55 212t-122.5 131.5t-154.5 43.5t-151.5 -42.5t-115.5 -126t-44 -195.5q0 -37 2 -55q23 -211 110.5 -315.5t207.5 -104.5q81 0 157 48.5t123 137.5t47 201q0 21 -4 65z" />
    <glyph glyph-name="ocircumflex" unicode="&#xf4;" 
d="M594 1264l-225 -97l-31 64l256 192l270 -176l-30 -63zM63 512q9 166 92 286t213 181t271 61q102 0 200 -33.5t174 -99t122 -165t49 -230.5q0 -136 -45.5 -239.5t-125 -173t-177.5 -104t-205 -34.5q-146 0 -276.5 62.5t-211 187.5t-80.5 301zM944 528q-7 124 -55 212
t-122.5 131.5t-154.5 43.5t-151.5 -42.5t-115.5 -126t-44 -195.5q0 -37 2 -55q23 -211 110.5 -315.5t207.5 -104.5q81 0 157 48.5t123 137.5t47 201q0 21 -4 65z" />
    <glyph glyph-name="otilde" unicode="&#xf5;" 
d="M416 1217h-64q32 96 75.5 135t98.5 39q28 0 58 -7.5t60 -17.5t61.5 -19.5t50.5 -9.5q54 0 75 56h64q-25 -102 -73 -143.5t-113 -41.5q-41 0 -118 20.5t-110 20.5q-46 0 -65 -32zM63 512q9 166 92 286t213 181t271 61q102 0 200 -33.5t174 -99t122 -165t49 -230.5
q0 -136 -45.5 -239.5t-125 -173t-177.5 -104t-205 -34.5q-146 0 -276.5 62.5t-211 187.5t-80.5 301zM944 528q-7 124 -55 212t-122.5 131.5t-154.5 43.5t-151.5 -42.5t-115.5 -126t-44 -195.5q0 -37 2 -55q23 -211 110.5 -315.5t207.5 -104.5q81 0 157 48.5t123 137.5
t47 201q0 21 -4 65z" />
    <glyph glyph-name="odieresis" unicode="&#xf6;" 
d="M369 1296q4 51 36.5 79t73.5 28q43 0 75 -27.5t38 -79.5q0 -64 -33.5 -98.5t-81.5 -34.5q-44 0 -76 34t-32 99zM655 1296q7 50 40 77.5t75 27.5q45 0 77 -31t32 -90q0 -56 -31.5 -87.5t-75.5 -31.5q-47 0 -82 35.5t-35 99.5zM63 512q9 166 92 286t213 181t271 61
q102 0 200 -33.5t174 -99t122 -165t49 -230.5q0 -136 -45.5 -239.5t-125 -173t-177.5 -104t-205 -34.5q-146 0 -276.5 62.5t-211 187.5t-80.5 301zM944 528q-7 124 -55 212t-122.5 131.5t-154.5 43.5t-151.5 -42.5t-115.5 -126t-44 -195.5q0 -37 2 -55q23 -211 110.5 -315.5
t207.5 -104.5q81 0 157 48.5t123 137.5t47 201q0 21 -4 65z" />
    <glyph glyph-name="oslash" unicode="&#xf8;" horiz-adv-x="1296" 
d="M801 1010l47 110q4 0 4 19q0 18 -21 28h179q-12 -11 -26.5 -31t-22.5 -32l-64 -127q157 -73 235 -196t78 -267q0 -138 -70.5 -265t-198 -205.5t-284.5 -78.5q-106 0 -208 35l-33 -80q-6 -24 -6 -35q0 -3 3 -12t3 -16h-176q11 9 14.5 14t17.5 33l64 129q-141 97 -207 214
t-66 238q0 107 46.5 208t127 179.5t181.5 123t211 44.5q85 0 172 -30zM752 911q-42 23 -99 23q-80 0 -156 -51t-123.5 -145.5t-47.5 -211.5q0 -75 22.5 -162t67.5 -171zM831 831l-335 -718q81 -33 166 -33q99 0 167.5 53.5t103 143.5t34.5 192q0 107 -35 206t-101 156z" />
    <glyph glyph-name="ugrave" unicode="&#xf9;" 
d="M705 1120l-256 144q-62 35 -62 96q0 44 32.5 78.5t76.5 34.5q49 0 79 -48l177 -241zM864 193q-86 -94 -207.5 -156t-230.5 -62q-105 0 -169 69t-64 212v545q0 52 -17 84t-43.5 45.5t-52.5 13.5v33l336 31v-656q0 -115 39 -169t102 -54t136.5 49.5t122 123.5t48.5 147v382
q0 55 -34 84t-78 29v33l335 31v-848q0 -127 113 -127v-35h-303q-11 42 -18 72t-11 58.5t-4 64.5z" />
    <glyph glyph-name="uacute" unicode="&#xfa;" 
d="M401 1184l174 225q49 57 99 57q29 0 53 -19t38.5 -49.5t14.5 -60.5q0 -54 -43 -73l-305 -127zM864 193q-86 -94 -207.5 -156t-230.5 -62q-105 0 -169 69t-64 212v545q0 52 -17 84t-43.5 45.5t-52.5 13.5v33l336 31v-656q0 -115 39 -169t102 -54t136.5 49.5t122 123.5
t48.5 147v382q0 55 -34 84t-78 29v33l335 31v-848q0 -127 113 -127v-35h-303q-11 42 -18 72t-11 58.5t-4 64.5z" />
    <glyph glyph-name="ucircumflex" unicode="&#xfb;" 
d="M561 1264l-225 -97l-31 64l256 192l270 -176l-30 -63zM864 193q-86 -94 -207.5 -156t-230.5 -62q-105 0 -169 69t-64 212v545q0 52 -17 84t-43.5 45.5t-52.5 13.5v33l336 31v-656q0 -115 39 -169t102 -54t136.5 49.5t122 123.5t48.5 147v382q0 55 -34 84t-78 29v33
l335 31v-848q0 -127 113 -127v-35h-303q-11 42 -18 72t-11 58.5t-4 64.5z" />
    <glyph glyph-name="udieresis" unicode="&#xfc;" 
d="M322 1296q4 51 36.5 79t73.5 28q43 0 75 -27.5t38 -79.5q0 -64 -34.5 -98.5t-80.5 -34.5q-44 0 -76 34t-32 99zM608 1296q6 49 39.5 77t75.5 28q45 0 76.5 -31.5t31.5 -89.5q0 -55 -31 -87t-75 -32q-47 0 -82 35.5t-35 99.5zM864 193q-86 -94 -207.5 -156t-230.5 -62
q-105 0 -169 69t-64 212v545q0 52 -17 84t-43.5 45.5t-52.5 13.5v33l336 31v-656q0 -115 39 -169t102 -54t136.5 49.5t122 123.5t48.5 147v382q0 55 -34 84t-78 29v33l335 31v-848q0 -127 113 -127v-35h-303q-11 42 -18 72t-11 58.5t-4 64.5z" />
    <glyph glyph-name="thorn" unicode="&#xfe;" horiz-adv-x="559" 
 />
    <glyph glyph-name="ydieresis" unicode="&#xff;" horiz-adv-x="1008" 
d="M242 1280q4 51 36 78.5t74 27.5q44 0 75.5 -27t37.5 -79q0 -64 -33.5 -98.5t-81.5 -34.5q-44 0 -76 34t-32 99zM528 1280q7 51 39 77.5t76 26.5q46 0 77.5 -30.5t31.5 -89.5q0 -56 -31.5 -87.5t-75.5 -31.5q-47 0 -82 35.5t-35 99.5zM-31 -369l127 289l33 -16
q0 -195 109 -195q43 0 88 35t74.5 98.5t29.5 137.5q0 76 -29 149l-305 752q-29 96 -110 96l-2 31h417v-31q-29 0 -48 -17t-19 -49q0 -20 4 -30l221 -609l242 609q4 16 4 22q0 31 -23.5 52.5t-60.5 21.5v31h319v-31q-91 -30 -112 -113l-416 -1057q-33 -84 -82 -139
t-107.5 -80.5t-121.5 -25.5q-113 0 -232 69z" />
    <glyph glyph-name="dotlessi" unicode="&#x131;" horiz-adv-x="559" 
d="M399 1024v-881q0 -59 27 -84.5t86 -25.5v-33h-449v33q56 0 84.5 22.5t28.5 87.5v672q0 67 -28 106.5t-85 39.5v30z" />
    <glyph glyph-name="OE" unicode="&#x152;" horiz-adv-x="2111" 
d="M319 688q19 -192 85.5 -323.5t161 -197t196.5 -65.5q99 0 185 62t139 183t53 290q0 45 -2 68q-9 174 -70.5 293t-155.5 178t-198 59q-102 0 -193.5 -57t-147 -167t-55.5 -266q1 -13 1.5 -25t0.5 -32zM1137 1167v176h608q60 0 91 5t52 28l97 -415l-33 -17q-14 67 -63 124
t-113.5 94t-135 57t-135.5 20t-105 -21.5t-40 -64.5v-176q32 0 50.5 -0.5t39.5 -1.5q101 0 150 20.5t49 91.5l30 17l80 -463l-30 -16q-30 131 -105.5 186t-200.5 55q-41 0 -63 -2v-641q0 -60 45.5 -92.5t120.5 -32.5q68 0 148 26t159 77.5t144.5 126.5t103.5 168l30 -17
l-176 -512q-30 22 -64 27.5t-93 5.5h-641v176q-57 -67 -126.5 -113t-143 -68t-146.5 -22q-165 0 -318 96.5t-246.5 263.5t-93.5 365v23q9 149 66 269.5t148.5 204.5t206.5 128.5t229 44.5q122 0 233 -50.5t191 -150.5z" />
    <glyph glyph-name="oe" unicode="&#x153;" horiz-adv-x="1935" 
d="M1679 688q-31 96 -98.5 147.5t-150.5 51.5q-74 0 -141.5 -41.5t-109.5 -123t-42 -194.5zM1137 432q37 -122 101 -206t145 -126.5t165 -42.5q111 0 207 72t150 207l30 -17l-110 -352l-33 17q-136 -39 -270 -39q-286 0 -482 184zM1137 430l-97 -303q-72 -79 -184 -122.5
t-235 -43.5q-144 0 -271.5 59t-207 184t-79.5 308q0 145 79 259.5t208.5 176.5t274.5 62q118 0 232 -46t200 -133q90 85 187.5 126.5t199.5 41.5q75 0 146 -23t132 -66t112 -107t87 -148zM944 479v23q0 132 -43 226t-112.5 138.5t-149.5 44.5q-63 0 -122.5 -27t-108.5 -83
t-77 -138t-28 -184q4 -129 52.5 -222.5t124 -141t159.5 -47.5q81 0 150.5 45t112 137.5t42.5 228.5z" />
    <glyph glyph-name="florin" unicode="&#x192;" horiz-adv-x="1296" 
d="M608 1008q30 252 142 363.5t270 111.5q133 0 274 -74l-61 -242l-33 17q0 93 -45.5 146.5t-112.5 53.5q-84 0 -154.5 -93.5t-88.5 -282.5h192q44 0 70 5t57 27l-47 -159q-31 14 -110 14h-177l-143 -735q-23 -120 -70.5 -212.5t-112.5 -155t-137 -92.5t-147 -30
q-155 0 -270 121l129 225l30 -16q-8 -50 -8 -66q0 -74 41 -113.5t103 -39.5q68 0 126 49t74 137l193 928h-127q-80 0 -129 -31l49 176q23 -23 39 -27.5t55 -4.5h129z" />
    <glyph glyph-name="circumflex" unicode="&#x2c6;" horiz-adv-x="559" 
d="M385 1217l-225 -97l-31 64l256 192l270 -176l-30 -63z" />
    <glyph glyph-name="breve" unicode="&#x2d8;" horiz-adv-x="559" 
d="M193 1376q11 -28 54.5 -43.5t96.5 -15.5t96.5 15t55.5 44h63q-16 -102 -77 -153.5t-138 -51.5q-54 0 -104.5 25.5t-81.5 72t-31 107.5h66z" />
    <glyph glyph-name="ring" unicode="&#x2da;" horiz-adv-x="559" 
d="M207 1296q0 -40 24 -62t58 -22q32 0 56 22t24 62t-23.5 62t-56.5 22t-57.5 -22t-24.5 -62zM113 1313q5 54 29 88t62.5 53t80.5 19q73 0 125.5 -47.5t52.5 -129.5q-4 -83 -56 -127.5t-122 -44.5q-71 0 -121.5 49t-50.5 140z" />
    <glyph glyph-name="tilde" unicode="&#x2dc;" horiz-adv-x="559" 
d="M193 1200h-64q32 96 75.5 135t98.5 39q28 0 58 -7.5t60 -17.5t60 -19t51 -9q56 0 76 55h64q-46 -184 -187 -184q-42 0 -118 20.5t-109 20.5q-47 0 -65 -33z" />
    <glyph glyph-name="emdash" unicode="&#x2013;" horiz-adv-x="1008" 
d="M928 592q37 0 64 11t48 52h31l-94 -239q-26 4 -41.5 8t-23.5 6t-24 2h-40h-705q-67 0 -96 -7.5t-63 -39.5h-33l96 223q14 -3 29 -7.5t23.5 -6t24 -2t36.5 -0.5h768z" />
    <glyph glyph-name="endash" unicode="&#x2014;" horiz-adv-x="2032" 
d="M1855 592q41 0 60 -0.5t41 -1.5q39 0 58.5 10.5t33.5 40.5h33l-80 -242q-32 23 -68 28t-108 5h-1682q-67 0 -96 -7.5t-63 -39.5h-31l80 240q12 -35 84 -35q22 1 40.5 1.5t51.5 0.5h1646z" />
    <glyph glyph-name="quoteleft" unicode="&#x2018;" horiz-adv-x="608" 
d="M96 928l223 415h193q-22 -8 -70 -87t-87.5 -171t-39.5 -137q0 -8 4 -20h-223z" />
    <glyph glyph-name="quotedblleft" unicode="&#x201c;" horiz-adv-x="881" 
d="M399 911l224 416h192q-22 -8 -70 -87t-87.5 -171t-39.5 -137q0 -3 5 -21h-224zM80 911l223 416h193q-22 -8 -70 -87t-87.5 -171t-39.5 -137q0 -7 4 -21h-223z" />
    <glyph glyph-name="quotedblright" unicode="&#x201d;" horiz-adv-x="881" 
d="M416 928v49q71 98 131.5 203t60.5 147l-16 16h239l-239 -415h-176zM96 928v49q71 98 132 202t61 148l-17 16h240l-240 -415h-176z" />
    <glyph glyph-name="quotedblbase" unicode="&#x201e;" horiz-adv-x="881" 
d="M33 -160v47q48 68 90.5 136t72 126.5t29.5 90.5l-16 16h240l-240 -416h-176zM399 -160v49q77 107 135 206.5t58 144.5l-17 16h240l-240 -416h-176z" />
    <glyph glyph-name="dagger" unicode="&#x2020;" horiz-adv-x="1327" 
d="M625 735q-47 -13 -93.5 -26.5t-97.5 -25t-96 -11.5q-111 0 -111 82q0 29 13 61q21 57 96 57q51 0 152.5 -28.5t136.5 -28.5q0 67 -11 139.5t-26 147t-27 131.5q0 60 29.5 89.5t73.5 29.5t74 -30t30 -89q-6 -42 -13.5 -89.5t-15.5 -99.5t-19.5 -129.5t-14.5 -99.5
q24 0 135 27.5t164 27.5q102 0 102 -90q0 -16 -2 -28q-8 -88 -107 -88q-59 0 -173.5 35t-118.5 36q12 -62 44.5 -154t65.5 -149q-110 -245 -110 -784h-64q0 76 -4.5 181.5t-16.5 223t-35 221t-57 158.5q38 51 67.5 136t29.5 167z" />
    <glyph glyph-name="daggerdbl" unicode="&#x2021;" horiz-adv-x="1327" 
d="M545 545q67 91 67 157q0 13 -4 33q-38 0 -138 -25.5t-140 -25.5q-107 0 -107 117q0 98 105 98q42 0 92 -13t106.5 -31.5t81.5 -23.5q2 15 2 46q0 66 -25.5 206t-25.5 181q0 58 31 86t76 28q44 0 74 -23.5t30 -66.5q0 -16 -2 -24q-7 -51 -15 -104t-17.5 -107t-16.5 -101
t-17 -121q13 3 81.5 22t117.5 29.5t90 10.5q115 0 115 -96q0 -19 -2 -29q-8 -84 -103 -84q-40 0 -149.5 25.5t-149.5 25.5q21 -101 82 -190q-17 -33 -37 -72.5t-32.5 -78.5t-12.5 -72q42 0 147 25.5t144 25.5q97 0 97 -111q0 -14 -3 -22q0 -86 -90 -86q-37 0 -81.5 11.5
t-114 33.5t-99.5 26q0 -133 50 -418q4 -20 4 -30q0 -50 -26.5 -76.5t-65.5 -26.5q-42 0 -74.5 29.5t-32.5 77.5q0 16 2 26q7 64 21.5 163.5t21 159t6.5 95.5q-22 -4 -85 -23t-108 -29.5t-87 -10.5q-109 0 -109 96q0 13 4 45q8 70 99 70q49 0 156 -25.5t130 -25.5q2 6 2 20
q0 24 -9.5 55.5t-20.5 59t-35 88.5z" />
    <glyph glyph-name="bullet" unicode="&#x2022;" horiz-adv-x="559" 
d="M195 498q0 64 42.5 103.5t98.5 39.5q55 0 92 -36t37 -107q0 -78 -39 -121t-94 -43t-96 44t-41 120z" />
    <glyph glyph-name="ellipsis" unicode="&#x2026;" horiz-adv-x="2034" 
d="M1571 129q0 64 42.5 103.5t98.5 39.5q55 0 92 -36t37 -107q0 -78 -39 -121t-94 -43q-54 0 -95.5 44t-41.5 120zM883 129q0 64 42.5 103.5t98.5 39.5q55 0 92 -36t37 -107q0 -78 -39 -121t-94 -43q-54 0 -95.5 44t-41.5 120zM209 129q0 43 20 75.5t53 50t68 17.5
q55 0 92 -36t37 -107q0 -78 -39 -121t-94 -43q-54 0 -95.5 45t-41.5 119z" />
    <glyph glyph-name="perthousand" unicode="&#x2030;" horiz-adv-x="2593" 
d="M991 1343h256v-30q-81 -29 -127 -160l-448 -1040q-17 -33 -17 -56q0 -24 33 -24v-33h-239v33q42 0 62.5 27.5t47.5 99.5l465 1057q5 11 8.5 20t7.5 20t4 19q0 27 -53 37v30zM1008 432q4 120 53.5 206.5t126 130.5t164.5 44t162 -46t119.5 -137.5t45.5 -221.5
q0 -27 -2 -39q-4 -99 -33 -176t-74 -128t-103 -77.5t-117 -26.5q-88 0 -166.5 54t-127 160.5t-48.5 256.5zM1167 416q0 -112 24.5 -192.5t64.5 -122.5t85 -42q65 0 117 89t62 251q2 19 2 54q0 88 -23 152t-60.5 95t-80.5 31q-73 0 -128.5 -82t-62.5 -233zM16 991
q23 179 123 277t226 98q84 0 158 -46.5t119.5 -139t45.5 -219.5q-3 -108 -31 -188.5t-76 -135.5t-106 -81t-119 -26q-88 0 -167 49t-127 142.5t-48 216.5q0 37 2 53zM174 977v-31q0 -107 24 -182.5t65 -114.5t85 -39q46 0 87 41t67 124.5t26 201.5q0 144 -49 224.5
t-117 80.5q-67 0 -120.5 -79t-67.5 -226zM1825 416q0 125 45.5 215t120.5 136t157 46q62 0 123 -27t108 -80.5t74 -133.5t27 -187q0 -103 -26.5 -182.5t-72.5 -133.5t-104.5 -81t-119.5 -27q-63 0 -122.5 28t-107 85.5t-75 144.5t-27.5 197zM1968 399v-26q0 -105 25.5 -179
t67 -112.5t89.5 -38.5q76 0 131.5 89t55.5 253q0 111 -24.5 186t-65 112.5t-86.5 37.5t-89 -37.5t-71.5 -111t-32.5 -173.5z" />
    <glyph glyph-name="guilsinglleft" unicode="&#x2039;" horiz-adv-x="432" 
d="M240 512l96 -256l-64 -33l-159 289l159 272l64 -32z" />
    <glyph glyph-name="guilsinglright" unicode="&#x203a;" horiz-adv-x="432" 
d="M209 496l-96 256l63 32l160 -288l-160 -273l-63 33z" />
    <glyph glyph-name="trademark" unicode="&#x2122;" horiz-adv-x="1855" 
d="M129 1343h639v-206h-63q1 6 1.5 11t0.5 13q0 64 -36.5 83.5t-105.5 19.5h-53v-529q7 -45 21.5 -65.5t36.5 -24.5t71 -4v-33h-385v33q64 0 96.5 16t32.5 78v529q-6 1 -15 2t-19 2t-17.5 1.5t-22.5 0.5q-106 0 -118 -133h-64v206zM1008 1247v-512q7 -44 20 -64.5t29.5 -25
t46.5 -4.5v-33h-256v33q45 0 62.5 15.5t17.5 78.5v465q0 67 -12 81.5t-52 14.5v47h256l207 -528l225 528h256v-49q-48 0 -72 -15t-24 -79v-465q0 -54 27 -74t69 -20v-33h-319v33q39 0 57 4.5t28.5 25t10.5 64.5v512l-289 -639h-32z" />
    <glyph glyph-name="periodcentered" unicode="&#x2219;" horiz-adv-x="721" 
d="M160 672q0 107 62.5 169t150.5 62q84 -2 143 -58.5t59 -156.5q0 -110 -60.5 -169.5t-143.5 -59.5q-52 0 -99 24t-77.5 72t-34.5 117z" />
    <glyph glyph-name="fi" unicode="&#xf001;" horiz-adv-x="1104" 
d="M383 991l545 17v-799q0 -81 17.5 -120t43 -47.5t68.5 -8.5v-33h-449v33q62 0 87.5 35t25.5 141v526q0 88 -23 119t-106 43h-209v-704q0 -106 32.5 -133t96.5 -27v-33h-449v33q50 0 81.5 24.5t31.5 71.5v782l-129 -14v31q129 0 129 96q0 112 26 194t77.5 135.5t124.5 78
t171 24.5q110 0 198.5 -32t139 -82.5t50.5 -102.5q0 -61 -66 -102q-35 -23 -63 -23q-52 0 -94.5 50.5t-51.5 115.5q-4 33 -34 53.5t-70 20.5q-75 0 -138 -57.5t-63 -159.5v-146z" />
    <glyph glyph-name="fl" unicode="&#xf002;" horiz-adv-x="1120" 
d="M399 991h113q44 0 69.5 7.5t59.5 41.5l-66 -159q-30 14 -96 14h-80v-702q0 -89 30 -124.5t83 -35.5v-33h-449v33q51 0 82 36.5t31 106.5v735l-129 -16v33q69 0 107.5 38t38.5 91q0 149 55.5 242t147 132t202.5 39q61 0 122.5 -10t119 -27.5t104.5 -39.5v-1184
q0 -176 113 -176v-33h-449v33q62 0 87.5 32.5t25.5 127.5v1007q0 80 -42.5 121t-105.5 41q-67 0 -120.5 -45.5t-53.5 -116.5v-209z" />
    </font>
</defs>
</svg>
